<?xml version="1.0" encoding="UTF-8"?>
<svg width="30px" height="30px" viewBox="0 0 30 30" version="1.1" xmlns="http://www.w3.org/2000/svg" xmlns:xlink="http://www.w3.org/1999/xlink">
    <!-- Generator: Sketch 58 (84663) - https://sketch.com -->
    <title>weather / sprinkle_active</title>
    <desc>Created with Sketch.</desc>
    <g id="weather-/-sprinkle_active" stroke="none" stroke-width="1" fill="none" fill-rule="evenodd">
        <path d="M7.5,21.5 C4.46243388,21.5 2,19.0375661 2,16 C2,13.0365209 4.34378001,10.6204609 7.27879286,10.5043672 L7.5,10.5 L10.2229972,10.5000846 C11.1324243,6.49206472 14.7167951,3.5 19,3.5 C23.9705627,3.5 28,7.52943725 28,12.5 C28,17.4705627 23.9705627,21.5 19,21.5 L19,21.5 L7.5,21.5 Z" id="Combined-Shape-Copy" stroke="#007AFF" fill="#5AC8FA" stroke-linejoin="round"></path>
        <path d="M10.75,26.5 C10.8880712,26.5 11,26.6119288 11,26.75 C11,26.8880712 10.8880712,27 10.75,27 C10.6119288,27 10.5,26.8880712 10.5,26.75 C10.5,26.6119288 10.6119288,26.5 10.75,26.5 Z M14.25,26.5 C14.3880712,26.5 14.5,26.6119288 14.5,26.75 C14.5,26.8880712 14.3880712,27 14.25,27 C14.1119288,27 14,26.8880712 14,26.75 C14,26.6119288 14.1119288,26.5 14.25,26.5 Z M17.75,26.5 C17.8880712,26.5 18,26.6119288 18,26.75 C18,26.8880712 17.8880712,27 17.75,27 C17.6119288,27 17.5,26.8880712 17.5,26.75 C17.5,26.6119288 17.6119288,26.5 17.75,26.5 Z M9.25,24 C9.38807119,24 9.5,24.1119288 9.5,24.25 C9.5,24.3880712 9.38807119,24.5 9.25,24.5 C9.11192881,24.5 9,24.3880712 9,24.25 C9,24.1119288 9.11192881,24 9.25,24 Z M12.75,24 C12.8880712,24 13,24.1119288 13,24.25 C13,24.3880712 12.8880712,24.5 12.75,24.5 C12.6119288,24.5 12.5,24.3880712 12.5,24.25 C12.5,24.1119288 12.6119288,24 12.75,24 Z M16.25,24 C16.3880712,24 16.5,24.1119288 16.5,24.25 C16.5,24.3880712 16.3880712,24.5 16.25,24.5 C16.1119288,24.5 16,24.3880712 16,24.25 C16,24.1119288 16.1119288,24 16.25,24 Z M19.75,24 C19.8880712,24 20,24.1119288 20,24.25 C20,24.3880712 19.8880712,24.5 19.75,24.5 C19.6119288,24.5 19.5,24.3880712 19.5,24.25 C19.5,24.1119288 19.6119288,24 19.75,24 Z" id="Combined-Shape" stroke="#007AFF" stroke-width="0.5"></path>
    </g>
</svg>