<?xml version="1.0" encoding="UTF-8"?>
<svg width="30px" height="30px" viewBox="0 0 30 30" version="1.1" xmlns="http://www.w3.org/2000/svg" xmlns:xlink="http://www.w3.org/1999/xlink">
    <title>weather / sunny</title>
    <g id="weather-/-sunny" stroke="none" stroke-width="1" fill="none" fill-rule="evenodd">
        <circle id="Oval-Copy" stroke="#C7C7CC" cx="15" cy="15" r="9"></circle>
        <path d="M15,26 C15.5522847,26 16,26.4477153 16,27 C16,27.5522847 15.5522847,28 15,28 C14.4477153,28 14,27.5522847 14,27 C14,26.4477153 14.4477153,26 15,26 Z M5.80761184,22.7781746 C6.19813614,22.3876503 6.83130112,22.3876503 7.22182541,22.7781746 C7.6123497,23.1686989 7.6123497,23.8018639 7.22182541,24.1923882 C6.83130112,24.5829124 6.19813614,24.5829124 5.80761184,24.1923882 C5.41708755,23.8018639 5.41708755,23.1686989 5.80761184,22.7781746 Z M22.7781746,22.7781746 C23.1686989,22.3876503 23.8018639,22.3876503 24.1923882,22.7781746 C24.5829124,23.1686989 24.5829124,23.8018639 24.1923882,24.1923882 C23.8018639,24.5829124 23.1686989,24.5829124 22.7781746,24.1923882 C22.3876503,23.8018639 22.3876503,23.1686989 22.7781746,22.7781746 Z M3,14 C3.55228475,14 4,14.4477153 4,15 C4,15.5522847 3.55228475,16 3,16 C2.44771525,16 2,15.5522847 2,15 C2,14.4477153 2.44771525,14 3,14 Z M27,14 C27.5522847,14 28,14.4477153 28,15 C28,15.5522847 27.5522847,16 27,16 C26.4477153,16 26,15.5522847 26,15 C26,14.4477153 26.4477153,14 27,14 Z M5.80761184,5.80761184 C6.19813614,5.41708755 6.83130112,5.41708755 7.22182541,5.80761184 C7.6123497,6.19813614 7.6123497,6.83130112 7.22182541,7.22182541 C6.83130112,7.6123497 6.19813614,7.6123497 5.80761184,7.22182541 C5.41708755,6.83130112 5.41708755,6.19813614 5.80761184,5.80761184 Z M22.7781746,5.80761184 C23.1686989,5.41708755 23.8018639,5.41708755 24.1923882,5.80761184 C24.5829124,6.19813614 24.5829124,6.83130112 24.1923882,7.22182541 C23.8018639,7.6123497 23.1686989,7.6123497 22.7781746,7.22182541 C22.3876503,6.83130112 22.3876503,6.19813614 22.7781746,5.80761184 Z M15,2 C15.5522847,2 16,2.44771525 16,3 C16,3.55228475 15.5522847,4 15,4 C14.4477153,4 14,3.55228475 14,3 C14,2.44771525 14.4477153,2 15,2 Z" id="Combined-Shape" fill="#C7C7CC"></path>
    </g>
</svg>