<?xml version="1.0" encoding="UTF-8"?>
<svg width="55px" height="45px" viewBox="0 0 55 45" version="1.1" xmlns="http://www.w3.org/2000/svg" xmlns:xlink="http://www.w3.org/1999/xlink">
    <title>web / EOF</title>
    <g id="web-/-EOF" stroke="none" stroke-width="1" fill="none" fill-rule="evenodd">
        <path d="M27.2104997,9.03162779 L27.2104997,29.5426866 C21.4736664,26.7332589 15.7368332,25.9735901 10,27.26368 L10,6.75262126 L10,6.75262126 C16.9651423,5.24386111 22.7019755,6.00352996 27.2104997,9.03162779 Z M45.2476103,6.70588382 L45.2476103,27.2169426 L45.2476103,27.2169426 C38.7389612,25.9399073 33.002128,26.6995762 28.0371106,29.4959491 L28.0371106,8.98489035 C32.942302,6.06991078 38.6791352,5.31024194 45.2476103,6.70588382 Z" id="Combined-Shape" fill="#FFCC00"></path>
        <path d="M24.9753418,38.652832 L24.9753418,38.1005859 L22.1157227,38.1005859 L22.1157227,36.5263672 L24.6896973,36.5263672 L24.6896973,35.9741211 L22.1157227,35.9741211 L22.1157227,34.5522461 L24.8674316,34.5522461 L24.8674316,34 L21.5,34 L21.5,38.652832 L24.9753418,38.652832 Z M26.2626688,38.652832 L26.2626688,34.9997559 L26.2753641,34.9997559 L28.7065164,38.652832 L29.3381082,38.652832 L29.3381082,34 L28.75095,34 L28.75095,37.6530762 L28.7382547,37.6530762 L26.3071024,34 L25.6786844,34 L25.6786844,38.652832 L26.2626688,38.652832 Z M31.8981403,38.652832 C32.6937132,38.652832 33.2544229,38.432251 33.5802692,37.9910889 C33.9061156,37.5499268 34.0690387,36.9865723 34.0690387,36.3010254 C34.0690387,35.9413249 34.0293659,35.6350505 33.9500202,35.3822021 C33.8706745,35.1293538 33.7617064,34.905599 33.6231159,34.7109375 C33.4845254,34.516276 33.3226602,34.3634033 33.1375202,34.2523193 C32.9523802,34.1412354 32.7582477,34.0714111 32.5551227,34.0428467 C32.3519977,34.0142822 32.1097289,34 31.8283161,34 L31.8283161,34 L30.2223591,34 L30.2223591,38.652832 L31.8981403,38.652832 Z M31.8346637,38.1005859 L30.8380817,38.1005859 L30.8380817,34.5522461 L31.8156208,34.5522461 C32.0293252,34.5522461 32.2044147,34.5607096 32.3408893,34.5776367 C32.4773639,34.5945638 32.6175414,34.6416423 32.7614216,34.7188721 C32.9053018,34.7961019 33.0327839,34.9177653 33.1438678,35.0838623 C33.2549518,35.2499593 33.3311237,35.4340413 33.3723835,35.6361084 C33.4136432,35.8381755 33.4342731,36.0555827 33.4342731,36.2883301 C33.4342731,36.7093913 33.380318,37.0479329 33.2724079,37.3039551 C33.1644977,37.5599772 33.0285521,37.7440592 32.864571,37.8562012 C32.7005899,37.9683431 32.5387246,38.0371094 32.3789753,38.0625 C32.2192259,38.0878906 32.0377887,38.1005859 31.8346637,38.1005859 L31.8346637,38.1005859 Z" id="END" fill="#FFCC00" fill-rule="nonzero"></path>
    </g>
</svg>