<svg xmlns="http://www.w3.org/2000/svg" viewBox="0 0 128 128"><defs><style>.cls-1{fill:none;}.cls-2{fill:#e8252a;}</style></defs><title>北京银行</title><g id="图层_2" data-name="图层 2"><g id="图层_1-2" data-name="图层 1"><g id="北京银行"><rect class="cls-1" width="128" height="128"/><path class="cls-2" d="M112.36,77.72l.45-1.69.4-1.69.34-1.72.28-1.69.12-.86.09-.89.1-.87.09-.85,0-.89.06-.89v-.9l0-.89,0-1.29,0-1.26-.09-1.26-.09-1.26L114,57.56l-.15-1.22-.19-1.23-.24-1.2-.25-1.2-.28-1.2-.27-1.16-.34-1.17L111.89,48l-.4-1.14-.43-1.13-.43-1.11-.49-1.1-.49-1.11-.55-1.08-.56-1.07-.58-1-.62-1-.67-1-.68-1-.7-1-.74-1-.77-1-.77-1-.82-1-.86-.92-.87-1-.92-.92-.92-.89-1-.89-1-.83-1-.83-1-.8-1-.76-1-.74-1-.71-1-.68-1.05-.64-1-.62-1.07-.61-1.08-.55-1.08-.52-1.1-.52-1.11-.47-1.13-.46L81,16.49l-1.14-.37-1.14-.36-1.16-.34-1.17-.31-1.2-.28L74,14.59l-1.19-.22-1.23-.18L70.3,14l-1.23-.15-1.26-.09-1.26-.06-1.26-.07H62.71l-1.29.07-1.29.06-1.26.09L57.64,14l-1.23.16-1.22.18L54,14.59l-1.2.24-1.19.28-1.17.31-1.17.34-1.13.36L47,16.49l-1.14.43-1.1.46-1.11.47-1.1.52-1.08.52-1.08.55-1,.61-1,.62-1,.64-1,.68-1,.71-1,.74-1,.76-1,.8-1,.83-.92.83-.95.89-.92.89-.92.92-.86,1-.87.92-.82,1-.8,1-.74,1-.74,1-.7,1-.71,1-.65,1-.61,1-.58,1-.59,1.07-.52,1.08-.49,1.11-.49,1.1-.46,1.11-.4,1.13L16.11,48l-.37,1.14-.34,1.17-.3,1.16-.28,1.2-.25,1.2-.21,1.2-.19,1.23L14,57.56l-.12,1.26-.13,1.26-.06,1.26,0,1.26,0,1.29,0,1.29,0,1.29.06,1.26L13.9,69,14,70.25l.15,1.23.19,1.23.21,1.2.25,1.2.28,1.19.3,1.2.34,1.17.37,1.13.4,1.17.4,1.11.46,1.14.49,1.1.49,1.11.52,1.07.59,1.08L20,88.65l.61,1,.65,1L22,91.79l.7,1,.74,1,.74,1,.8,1,.82,1,.87,1,.86,1,.92.92.92.89.95.89.92.86,1,.8,1,.8,1,.77,1,.73,1,.71,1,.68,1,.64,1,.62,1,.61,1.08.55,1.08.56,1.1.48,1.11.5,1.1.43,1.14.43,1.14.4,1.13.34,1.17.33,1.17.31,1.19.28,1.2.24,1.24.22,1.22.18,1.23.19,1.23.12,1.26.09,1.29.06,1.29.07H64l1.81,0,1.78-.07,1.76-.15,1.75-.18,1.71-.25,1.67-.31,1.68-.37,1.63-.4,1.6-.49,1.6-.52,1.56-.58,1.54-.62,1.5-.7,1.51-.74,1.48-.8L90,107.3l1-.61,1-.62.92-.61.86-.65.86-.61.79-.65.77-.64.74-.65.67-.67.68-.65.62-.67.58-.68.55-.71.52-.67.47-.71.46-.71.4-.7.36-.71.34-.7.31-.74.28-.74.21-.74.22-.73.15-.77.12-.74.1-.77,0-.77,0-.76,0-.8,0-.77-.1-.8-.12-.8-.15-.64-.16-.68-.18-.61-.19-.65-.24-.61-.25-.59-.28-.58-.3-.59-.34-.55-.34-.55-.4-.55-.4-.53-.43-.49-.42-.49-.5-.49-.49-.49-.52-.46-.56-.43L97,74.34l-.58-.43-.62-.4-.64-.4-.67-.37-.71-.4L93.06,72l-.74-.33-.76-.34-.8-.31-.83-.31-.83-.3-.86-.28-.89-.28-2.3-.8.73-.42.71-.47.67-.46.62-.49.58-.52.55-.52.5-.56.45-.58.43-.58.37-.62.37-.64.28-.65.28-.67.21-.68.16-.71.15-.74.06-.85,0-.8,0-.83-.06-.83-.15-.8-.22-.8-.24-.77-.31-.8-.37-.76-.43-.77-.5-.77-.54-.74-.62-.73-.68-.74L87.31,48l-.76-.7-.86-.74-.86-.71-.89-.64L83,44.63l-.94-.58-1-.55-1-.5-1-.49L78,42.08l-1.11-.43-1.14-.37L74.54,41l-1.2-.31-1.23-.31-1.26-.25-1.29-.21-1.48-.21-1.47-.19-1.54-.15-1.53-.13L62,39.07,60.37,39l-1.59-.06-1.66,0-1.66,0-1.69,0H52.05L50.3,39,48.52,39l-1.81.09-1.82.09-1.84.16V55.26l1.47-.18L46,54.89l1.47-.12L49,54.65l1.47-.1L52,54.49l1.5,0h3l1.51.06,1.54.07,1.53.12,1.53.12,1.54.15,1.57.19,1.57.18,1.26.22,1.2.24,1.1.28,1.05.28.95.33.89.34.83.37.73.4.34.18.31.22.31.24.27.22.28.25.22.24.24.25.19.24.18.28.18.28.16.27.12.31.09.28.09.3.07.31.06.34v.55l-.06.28-.07.31-.24.67-.34.77-.22.31-.24.3-.27.28-.34.21-.34.22-.37.18-.4.16-.43.12-.46.09-.52.1-.53,0H72.41l-.61,0-.64-.1-.71-.09-1.84-.21L66.8,66,65,65.83,63.2,65.7l-1.75-.09-1.75-.06-1.75,0-1.72,0-1.69,0-1.69,0-1.69.06-1.66.09-1.63.13L46.24,66l-1.59.19-1.6.21V82.57l2.24-.25,2.18-.24,2.15-.18,2.15-.16,2.06-.09,2.06-.09,2,0h2l1.94.06,1.9.06,1.84.12,1.82.19,1.78.18,1.75.25,1.69.27,1.66.31,1.32.25,1.23.3,1.17.31,1.07.34,1,.4L81,85l.43.21.4.22.39.21.37.25.34.24.34.25.31.28.27.24.28.28.25.27.21.28.22.31.18.3.15.31.16.31.09.34.12.3.06.34.06.34.07.37v.27l0,.31,0,.31v.28l-.07.3-.06.28-.09.31-.09.27-.12.31-.16.28-.15.3-.18.31-.4.62-.49.61-.31.37-.37.34-.37.34-.4.3L82,97l-.43.31-.43.27-.46.28-.46.28-.49.24-.52.25-.53.24-.55.22-.58.21-.58.19-.62.18-.62.19-.64.15-.64.15-.71.12-1.41.25-1.48.22-1.57.15-1.65.12-1.73.07H63.14l-1,0-1-.06-.94-.06-.93-.09-.92-.12-.89-.13-.92-.15-.89-.18-.89-.22L54,99.87l-.87-.25-.85-.24-.86-.31-.84-.31-.82-.31-.83-.37-.83-.36-.8-.37-.8-.43-.77-.43L45,96l-.77-.47-.77-.49-.74-.52L41.94,94l-.73-.56-.74-.58-.71-.61-.7-.62L38.38,91l-.7-.68L37,89.64l-.65-.71-.64-.71-.61-.7-.59-.71L34,86.07l-.56-.73-.52-.74-.49-.77-.49-.74-.46-.8L31,81.53l-.4-.8-.4-.8-.37-.8-.37-.83-.34-.8-.3-.86-.28-.83L28.3,75l-.24-.86-.22-.86-.22-.89-.17-.89-.16-.89-.15-.92-.1-.92-.12-.93-.06-.92-.06-1,0-1V63.06l0-1,.06-1,.06-.92.12-.92.1-.92.15-.9.16-.92.17-.86.22-.89.22-.86.24-.89.28-.83.28-.86.3-.83.34-.83.37-.83.37-.8.4-.8.4-.79.43-.8.46-.77.49-.77.49-.74.52-.77.56-.73.55-.74.59-.71.61-.7.64-.71.65-.7.65-.68.7-.68.71-.64.7-.62.71-.61.74-.58L42,34l.74-.55.74-.52.77-.49.77-.5.76-.46.8-.43.8-.43.8-.4.8-.36.83-.34.82-.34.84-.31.86-.3.82-.25.9-.25.85-.24.9-.19.89-.18.89-.15.89-.16.92-.12,1-.09.92-.06,1-.07,1,0,1,0,1,0,1,0,1,.07.92.06.92.09.93.12.88.16.9.15.89.18.89.19.86.24.86.25.86.25.83.3.86.31.8.34.83.34.8.36.79.4.8.43.77.43.8.46.74.5.77.49.73.52.74.55.71.56.73.58.71.61.68.62.7.64.68.68.64.68.65.67.64.71.62.7.58.71.55.74.56.74.52.73.49.77.46.77.46.77.46.79.4.77.4.83.37.8.37.83.34.83.3.83.28.86.27.86.25.86.22.86.21.89.19.89.15.89.12.93.13.92.09.92.09.92.06,1,0,1v1l-.18,4,.8.49.79.46.8.53.77.52.74.55.74.55.74.56.7.61.71.62.7.61.65.65.67.64.65.71.61.67.62.74.62.74Z"/></g></g></g></svg>