<?xml version="1.0" encoding="UTF-8"?>
<svg width="45px" height="45px" viewBox="0 0 45 45" version="1.1" xmlns="http://www.w3.org/2000/svg" xmlns:xlink="http://www.w3.org/1999/xlink">
    <title>tabicon/ invitation-black</title>
    <g id="tabicon/-invitation-black" stroke="none" stroke-width="1" fill="none" fill-rule="evenodd">
        <path d="M35,12.25 C35.7593915,12.25 36.4468915,12.5578042 36.9445436,13.0554564 C37.4421958,13.5531085 37.75,14.2406085 37.75,15 L37.75,15 L37.75,31 C37.75,31.7593915 37.4421958,32.4468915 36.9445436,32.9445436 C36.4468915,33.4421958 35.7593915,33.75 35,33.75 L35,33.75 L11,33.75 C10.2406085,33.75 9.55310847,33.4421958 9.05545635,32.9445436 C8.55780423,32.4468915 8.25,31.7593915 8.25,31 L8.25,31 L8.25,15 C8.25,14.2406085 8.55780423,13.5531085 9.05545635,13.0554564 C9.55310847,12.5578042 10.2406085,12.25 11,12.25 L11,12.25 Z" id="Rectangle" stroke="#4A4A4A" stroke-width="1.5"></path>
        <path d="M31.3792738,12.25 L8.25,28.4404917 L8.25,15 C8.25,14.2406085 8.55780423,13.5531085 9.05545635,13.0554564 C9.55310847,12.5578042 10.2406085,12.25 11,12.25 L11,12.25 L31.3792738,12.25 Z" id="Rectangle" stroke="#4A4A4A" stroke-width="1.5" fill="#E5E5EA"></path>
    </g>
</svg>