<?xml version="1.0" encoding="UTF-8"?>
<svg width="45px" height="45px" viewBox="0 0 45 45" version="1.1" xmlns="http://www.w3.org/2000/svg" xmlns:xlink="http://www.w3.org/1999/xlink">
    <title>tabicon/ key</title>
    <g id="tabicon/-key" stroke="none" stroke-width="1" fill="none" fill-rule="evenodd">
        <path d="M17.9909871,18 L17.7360515,22.0765766 L21.2414163,20.545045 L21.9,22.6171171 L18.2034335,23.6531532 L20.7527897,26.6486486 L19.1381974,28 L16.95,24.5990991 L14.7618026,28 L13.1472103,26.6486486 L15.6965665,23.6531532 L12,22.6171171 L12.6585837,20.545045 L16.1639485,22.0765766 L15.9090129,18 L17.9909871,18 Z M30.0909871,18 L29.8360515,22.0765766 L33.3414163,20.545045 L34,22.6171171 L30.3034335,23.6531532 L32.8527897,26.6486486 L31.2381974,28 L29.05,24.5990991 L26.8618026,28 L25.2472103,26.6486486 L27.7965665,23.6531532 L24.1,22.6171171 L24.7585837,20.545045 L28.2639485,22.0765766 L28.0090129,18 L30.0909871,18 Z" id="Combined-Shape" fill="#E5E5EA" fill-rule="nonzero"></path>
    </g>
</svg>