<svg xmlns="http://www.w3.org/2000/svg" viewBox="0 0 128 128"><defs><style>.cls-1{fill:none;}.cls-2{fill:#d7000f;}</style></defs><title>中信银行</title><g id="图层_2" data-name="图层 2"><g id="图层_1-2" data-name="图层 1"><g id="中信银行"><rect class="cls-1" width="128" height="128"/><path class="cls-2" d="M42.36,22.11c8.31,3.17,15.83,11.08,15.83,20.45l.13,72a40.67,40.67,0,0,0,5.81.4,44.42,44.42,0,0,0,6.07-.4v-72c0-9.37,7.52-17.28,15.7-20.45A2.15,2.15,0,0,0,87.35,20a2.58,2.58,0,0,0-1.58-2.24,51.37,51.37,0,0,0-43.15,0A2.58,2.58,0,0,0,41,20a2.23,2.23,0,0,0,1.32,2.12"/><path class="cls-2" d="M50.8,113.15v-66c0-7.26-4.09-13.33-9.76-15.71v78a48.19,48.19,0,0,0,9.76,3.69m36.55-3.7v-78c-5.67,2.38-9.76,8.45-9.76,15.71v66a47.41,47.41,0,0,0,9.76-3.7M23.75,54.83a1.14,1.14,0,0,1,.93.79A7,7,0,0,0,30.75,61a4,4,0,0,0,2.37-1.19V23.56a51,51,0,0,0,0,80.89V68a3.29,3.29,0,0,0-2.37-1,6.85,6.85,0,0,0-6.07,5.28,1.15,1.15,0,0,1-.93.79c-.39,0-.65-.4-.79-.53a14.13,14.13,0,0,1,0-17.15c.14-.14.4-.53.79-.53M111.5,67a7.15,7.15,0,0,0-6.2,5.28c-.13.39-.4.79-.79.79a.94.94,0,0,1-.79-.53,13.61,13.61,0,0,1,0-17.15.92.92,0,0,1,.79-.53c.39,0,.66.4.79.8a7.29,7.29,0,0,0,6.2,5.4,4.28,4.28,0,0,0,3.3-2.5A51,51,0,0,0,95.54,23.69v80.49a51,51,0,0,0,19-32.73,13.86,13.86,0,0,0,.26-2,3.79,3.79,0,0,0-3.3-2.5"/></g></g></g></svg>