<svg xmlns="http://www.w3.org/2000/svg" viewBox="0 0 128 128"><defs><style>.cls-1{fill:none;}.cls-2{fill:#00367a;}</style></defs><title>交通银行</title><g id="图层_2" data-name="图层 2"><g id="图层_1-2" data-name="图层 1"><g id="交通银行"><rect class="cls-1" width="128" height="128"/><path class="cls-2" d="M80,34.63a31.1,31.1,0,0,0-17.27,5L46,50.42V13.14L16.24,37.75V84.41A31.61,31.61,0,0,0,38.1,114.16L43.79,116A33.88,33.88,0,0,1,24.32,85.51c0-19.11,16.17-34.35,36-34.35,18.55,0,33.79,13.41,35.82,30.49H75.39a16,16,0,0,0-31.41,4,15.8,15.8,0,0,0,16,15.62,15.61,15.61,0,0,0,15.8-13.78H96.15A32.5,32.5,0,0,1,89,105.9s12.49-14.51,16.72-21.13a34.17,34.17,0,0,0,6.06-19.1c0-16.9-14.33-31-31.78-31Z"/></g></g></g></svg>