<svg xmlns="http://www.w3.org/2000/svg" viewBox="0 0 128 128"><defs><style>.cls-1{fill:none;}.cls-2{fill:#008566;}</style></defs><title>农业银行</title><g id="图层_2" data-name="图层 2"><g id="图层_1-2" data-name="图层 1"><g id="农业银行"><rect class="cls-1" width="128" height="128"/><path class="cls-2" d="M64,12.71c-1.54,0-3.08.06-4.62.21V37.69a2.06,2.06,0,0,0,2.06,2.05h5.12a2.06,2.06,0,0,0,2.06-2.05V12.92A44.64,44.64,0,0,0,64,12.71Zm3.13,33.6H74.3a2.06,2.06,0,0,0,2-2.06V17.84h5.13V59.9a2.35,2.35,0,0,1-2.34,2.36H67.49c-2.26,0-2.36,1.18-2.36,1.18V48.31A2,2,0,0,1,67.13,46.31Z"/><path class="cls-2" d="M61,46.31H53.79a2.07,2.07,0,0,1-2-2.06V17.84H46.61V59.9A2.36,2.36,0,0,0,49,62.26H60.62c2.26,0,2.36,1.18,2.36,1.18V48.31A2,2,0,0,0,61,46.31ZM48.66,80.36h8.21a2.05,2.05,0,0,1,2.05,2v31.86H63V66.77a2.35,2.35,0,0,0-2.35-2.35H49c-2.25,0-2.36-1.18-2.36-1.18V78.36a2,2,0,0,0,2,2Zm30.77,0h-8.2a2.05,2.05,0,0,0-2,2v31.86h-4.1V66.77a2.34,2.34,0,0,1,2.34-2.35H79.08c2.25,0,2.36-1.18,2.36-1.18V78.36a2,2,0,0,1-2,2Z"/><path class="cls-2" d="M76.36,14.2V24.87a41,41,0,1,1-24.62-.05V14.15a51.34,51.34,0,1,0,24.62,0Z"/><path class="cls-2" d="M66.51,108.11H61.38a2.07,2.07,0,0,1-2.05-2.06V80.41h9.23v25.64a2.06,2.06,0,0,1-2,2.06Z"/></g></g></g></svg>