<svg xmlns="http://www.w3.org/2000/svg" viewBox="0 0 128 128"><defs><style>.cls-1{fill:none;}.cls-2{fill:#c42b25;}</style></defs><title>工商银行</title><g id="图层_2" data-name="图层 2"><g id="图层_1-2" data-name="图层 1"><g id="工商银行"><rect class="cls-1" width="128" height="128"/><path class="cls-2" d="M34.49,38.13H62.18v8.2H42.69V54H62.18V76.2H42.69v9.29H62.18v7.29H34.49V68h20V61.26h-20V38.13Zm59,0V61.26h-20V68h20V93H65.83V85.68H85.5V76.39H65.83V54H85.5V46.33H65.83v-8.2H93.52ZM13,64a50.92,50.92,0,1,1,0,.16Zm51,44.45A44.45,44.45,0,1,0,19.55,63.88V64a44.4,44.4,0,0,0,44.33,44.45Z"/></g></g></g></svg>