<svg xmlns="http://www.w3.org/2000/svg" viewBox="0 0 128 128"><defs><style>.cls-1{fill:none;}.cls-2{fill:#b11e23;}.cls-3{fill:#6e1318;}.cls-4{fill:#d51523;}</style></defs><title>广发银行</title><g id="图层_2" data-name="图层 2"><g id="图层_1-2" data-name="图层 1"><g id="广发银行"><rect class="cls-1" width="128" height="128"/><path class="cls-2" d="M63.87,56a227.34,227.34,0,0,1-14.2,24.52A191.63,191.63,0,0,0,11.2,86.63a182.51,182.51,0,0,0,38.59-67h0A200.2,200.2,0,0,0,63.87,56Z"/><path class="cls-3" d="M49.66,80.55a231.82,231.82,0,0,1,28.39.06A190.36,190.36,0,0,0,102.81,111a182.16,182.16,0,0,0-77.61-.11l0,0,.41-.41L26,110l.41-.41.4-.42.41-.42.41-.44.39-.41.42-.43.4-.43.4-.43.4-.43.41-.44.39-.44.4-.44.41-.45.39-.44.4-.45.4-.45.4-.44.39-.45.4-.46.39-.46.4-.46.39-.45A214.66,214.66,0,0,0,49.66,80.55Z"/><path class="cls-4" d="M78.05,80.61A229.56,229.56,0,0,1,63.87,56,191.78,191.78,0,0,0,77.8,19.65c7.66,24.18,21.75,48.63,39,67.11v0a200,200,0,0,0-38.74-6.18Z"/><path class="cls-2" d="M78.05,80.61a200,200,0,0,1,38.74,6.18l-14,24.21A190.36,190.36,0,0,1,78.05,80.61Z"/><path class="cls-4" d="M49.67,80.55a199.32,199.32,0,0,1-24.49,30.3l-14-24.22A191.63,191.63,0,0,1,49.67,80.55Z"/><path class="cls-3" d="M77.8,19.65A191.44,191.44,0,0,1,63.87,56a200.2,200.2,0,0,1-14-36.38Z"/></g></g></g></svg>