<svg xmlns="http://www.w3.org/2000/svg" viewBox="0 0 128 128"><defs><style>.cls-1{fill:none;}.cls-2{fill:#c42b25;}</style></defs><g id="图层_2" data-name="图层 2"><g id="银行"><g id="银行-2" data-name="银行"><rect class="cls-1" width="128" height="128"/><path class="cls-2" d="M57.86,96a1,1,0,0,1-1-1V82.67H39.45a1,1,0,0,1-1-1V75a1,1,0,0,1,1-1H56.86V66.61H39.45a1,1,0,0,1-1-1V58.94a1,1,0,0,1,1-1H55.83L38.66,35.61A1,1,0,0,1,39.45,34H51.73a1,1,0,0,1,.81.42L64,50.55,75.46,34.42a1,1,0,0,1,.81-.42H88.55a1,1,0,0,1,.79,1.61L72.17,57.94H88.55a1,1,0,0,1,1,1v6.67a1,1,0,0,1-1,1H71.14V74H88.55a1,1,0,0,1,1,1v6.67a1,1,0,0,1-1,1H71.14V95a1,1,0,0,1-1,1Z"/><path class="cls-2" d="M64,13A50.91,50.91,0,0,0,13,64v.16A51,51,0,1,0,64,13Zm0,95A43.93,43.93,0,0,1,20,64.14V64a44,44,0,1,1,44,44Z"/></g></g></g></svg>