<?xml version="1.0" encoding="UTF-8"?>
<svg width="45px" height="45px" viewBox="0 0 45 45" version="1.1" xmlns="http://www.w3.org/2000/svg" xmlns:xlink="http://www.w3.org/1999/xlink">
    <title>icons / clipboard</title>
    <g id="icons-/-clipboard" stroke="none" stroke-width="1" fill="none" fill-rule="evenodd">
        <path d="M11,29 L6,29 C4.34314575,29 3,27.6568542 3,26 L3,9 C3,7.34314575 4.34314575,6 6,6 L27,6 C28.6568542,6 30,7.34314575 30,9 L30,13 L30,13" id="Path" stroke="#4A4A4A" stroke-width="2"></path>
        <path d="M17.8458278,16 L37.1541722,16 C38.4914503,16 38.9763797,16.1392384 39.4652686,16.4006991 C39.9541574,16.6621597 40.3378403,17.0458426 40.5993009,17.5347314 C40.8607616,18.0236203 41,18.5085497 41,19.8458278 L41,35.1541722 C41,36.4914503 40.8607616,36.9763797 40.5993009,37.4652686 C40.3378403,37.9541574 39.9541574,38.3378403 39.4652686,38.5993009 C38.9763797,38.8607616 38.4914503,39 37.1541722,39 L17.8458278,39 C16.5085497,39 16.0236203,38.8607616 15.5347314,38.5993009 C15.0458426,38.3378403 14.6621597,37.9541574 14.4006991,37.4652686 C14.1392384,36.9763797 14,36.4914503 14,35.1541722 L14,19.8458278 C14,18.5085497 14.1392384,18.0236203 14.4006991,17.5347314 C14.6621597,17.0458426 15.0458426,16.6621597 15.5347314,16.4006991 C16.0236203,16.1392384 16.5085497,16 17.8458278,16 Z" id="Rectangle-Copy-2" stroke="#4A4A4A" stroke-width="2"></path>
    </g>
</svg>