<?xml version="1.0" encoding="UTF-8"?>
<svg width="30px" height="30px" viewBox="0 0 30 30" version="1.1" xmlns="http://www.w3.org/2000/svg" xmlns:xlink="http://www.w3.org/1999/xlink">
    <title>weather /  sandstorm</title>
    <g id="weather-/--sandstorm" stroke="none" stroke-width="1" fill="none" fill-rule="evenodd" stroke-linecap="round">
        <path d="M22.9251066,19 C22.9745201,18.6258002 23,18.2442847 23,17.8569624 C23,12.9653971 18.9360507,9 13.9229152,9 C11.1486095,9 8.66500119,10.214441 7,12.1282154" id="Path" stroke="#C7C7CC"></path>
        <path d="M28.9528259,19 C28.9840181,18.6929621 29,18.3813869 29,18.0660516 C29,13.0590096 24.9705627,9 20,9" id="Path" stroke="#C7C7CC"></path>
        <path d="M21,19 C21,16.790861 18.9852814,15 16.5,15 C14.0147186,15 12,16.790861 12,19" id="Path" stroke="#C7C7CC"></path>
        <path d="M1,24 C1.66666667,23.3333333 2.16666667,22.3333333 2.5,21 C2.61111111,23 3.30555556,24 4.58333333,24 C5.86111111,24 6.66666667,23 7,21 C7.22222222,23 7.94444444,24 9.16666667,24 C10.3888889,24 11.1666667,23 11.5,21 C11.8333333,23 12.5833333,24 13.75,24 C14.9166667,24 15.6666667,23 16,21 C16.4444444,23 17.2222222,24 18.3333333,24 C19.4444444,24 20.1666667,23 20.5,21 C20.8333333,23 21.6388889,24 22.9166667,24 C24.1944444,24 24.8888889,23.0909097 25,21.2727292 C25,23.0909097 25.6666667,24 27,24 C28.3333333,24 29,23.0909097 29,21.2727292" id="Path" stroke="#C7C7CC" stroke-linejoin="round"></path>
    </g>
</svg>