<?xml version="1.0" encoding="UTF-8"?>
<svg width="30px" height="30px" viewBox="0 0 30 30" version="1.1" xmlns="http://www.w3.org/2000/svg" xmlns:xlink="http://www.w3.org/1999/xlink">
    <!-- Generator: Sketch 58 (84663) - https://sketch.com -->
    <title>weather / sunny</title>
    <desc>Created with Sketch.</desc>
    <g id="weather-/-sunny" stroke="none" stroke-width="1" fill="none" fill-rule="evenodd">
        <circle id="Oval-Copy" stroke="#C7C7CC" cx="15" cy="15" r="9"></circle>
        <path d="M15,26.5 C15.1380712,26.5 15.25,26.6119288 15.25,26.75 C15.25,26.8880712 15.1380712,27 15,27 C14.8619288,27 14.75,26.8880712 14.75,26.75 C14.75,26.6119288 14.8619288,26.5 15,26.5 Z M23.4852814,23.131728 C23.5829124,23.2293591 23.5829124,23.3876503 23.4852814,23.4852814 C23.3876503,23.5829124 23.2293591,23.5829124 23.131728,23.4852814 C23.0340969,23.3876503 23.0340969,23.2293591 23.131728,23.131728 C23.2293591,23.0340969 23.3876503,23.0340969 23.4852814,23.131728 Z M6.86827202,23.131728 C6.96590309,23.2293591 6.96590309,23.3876503 6.86827202,23.4852814 C6.77064094,23.5829124 6.6123497,23.5829124 6.51471863,23.4852814 C6.41708755,23.3876503 6.41708755,23.2293591 6.51471863,23.131728 C6.6123497,23.0340969 6.77064094,23.0340969 6.86827202,23.131728 Z M26.75,14.75 C26.8880712,14.75 27,14.8619288 27,15 C27,15.1380712 26.8880712,15.25 26.75,15.25 C26.6119288,15.25 26.5,15.1380712 26.5,15 C26.5,14.8619288 26.6119288,14.75 26.75,14.75 Z M3.25,14.75 C3.38807119,14.75 3.5,14.8619288 3.5,15 C3.5,15.1380712 3.38807119,15.25 3.25,15.25 C3.11192881,15.25 3,15.1380712 3,15 C3,14.8619288 3.11192881,14.75 3.25,14.75 Z M23.4852814,6.51471863 C23.5829124,6.6123497 23.5829124,6.77064094 23.4852814,6.86827202 C23.3876503,6.96590309 23.2293591,6.96590309 23.131728,6.86827202 C23.0340969,6.77064094 23.0340969,6.6123497 23.131728,6.51471863 C23.2293591,6.41708755 23.3876503,6.41708755 23.4852814,6.51471863 Z M6.51471863,6.51471863 C6.6123497,6.41708755 6.77064094,6.41708755 6.86827202,6.51471863 C6.96590309,6.6123497 6.96590309,6.77064094 6.86827202,6.86827202 C6.77064094,6.96590309 6.6123497,6.96590309 6.51471863,6.86827202 C6.41708755,6.77064094 6.41708755,6.6123497 6.51471863,6.51471863 Z M15,3 C15.1380712,3 15.25,3.11192881 15.25,3.25 C15.25,3.38807119 15.1380712,3.5 15,3.5 C14.8619288,3.5 14.75,3.38807119 14.75,3.25 C14.75,3.11192881 14.8619288,3 15,3 Z" id="Combined-Shape" stroke="#C7C7CC" stroke-width="0.5" fill="#D8D8D8"></path>
    </g>
</svg>