<?xml version="1.0" encoding="UTF-8"?>
<svg width="45px" height="45px" viewBox="0 0 45 45" version="1.1" xmlns="http://www.w3.org/2000/svg" xmlns:xlink="http://www.w3.org/1999/xlink">
    <title>tab/ bill</title>
    <g id="tab/-bill" stroke="none" stroke-width="1" fill="none" fill-rule="evenodd">
        <path d="M36,10 C37.9329966,10 39.5,11.5670034 39.5,13.5 L39.5,32 C39.5,33.9329966 37.9329966,35.5 36,35.5 L11.5,35.5 C9.56700338,35.5 8,33.9329966 8,32 L8,30 L9.5,30 L9.5,32 C9.5,33.0543618 10.3158778,33.9181651 11.3507377,33.9945143 L11.5,34 L36,34 C37.0543618,34 37.9181651,33.1841222 37.9945143,32.1492623 L38,32 L38,13.5 C38,12.3954305 37.1045695,11.5 36,11.5 L11.5,11.5 C10.4456382,11.5 9.58183488,12.3158778 9.50548574,13.3507377 L9.5,13.5 L9.5,16 L8,16 L8,13.5 C8,11.5670034 9.56700338,10 11.5,10 L36,10 Z M9.5,21 L9.5,25 L8,25 L8,21 L9.5,21 Z" id="Combined-Shape" fill="#E5E5EA"></path>
        <rect id="Rectangle" fill="#E5E5EA" x="6" y="16" width="5.5" height="3"></rect>
        <rect id="Rectangle-Copy-2" fill="#E5E5EA" x="6" y="25" width="5.5" height="3"></rect>
        <polygon id="￥" fill="#E5E5EA" fill-rule="nonzero" points="18.6952381 16 22.8202381 21.7777778 18.6952381 21.7777778 18.6952381 23.2222222 22.8202381 23.2222222 22.8202381 24.6666667 18.6952381 24.6666667 18.6952381 26.1111111 22.8202381 26.1111111 22.8202381 29 25.5702381 29 25.5702381 26.1111111 29.6952381 26.1111111 29.6952381 24.6666667 25.5702381 24.6666667 25.5702381 23.2222222 29.6952381 23.2222222 29.6952381 21.7777778 25.5702381 21.7777778 29.6952381 16 26.9452381 16 24.1952381 20.3333333 21.4452381 16"></polygon>
    </g>
</svg>