<?xml version="1.0" encoding="UTF-8"?>
<svg width="45px" height="45px" viewBox="0 0 45 45" version="1.1" xmlns="http://www.w3.org/2000/svg" xmlns:xlink="http://www.w3.org/1999/xlink">
    <title>tab/ cog_black</title>
    <g id="tab/-cog_black" stroke="none" stroke-width="1" fill="none" fill-rule="evenodd">
        <path d="M26.4325948,9.32833637 C27.3423778,9.59957503 28.2126372,9.96250221 29.0326539,10.4063987 L29.3829914,13.8919401 C29.9898029,14.4031642 30.5405212,14.9788499 31.0245919,15.608443 L34.5934126,15.9671574 C35.0374725,16.787476 35.4005035,17.6580743 35.6717745,18.5682214 L33.2692747,21.5074101 C33.2880948,21.7703705 33.2976666,22.03589 33.2976666,22.3036451 C33.2976666,22.6926002 33.2774682,23.0768377 33.2380629,23.4553659 L35.671475,26.4325948 C35.4002363,27.3423778 35.0373091,28.2126372 34.5934126,29.0326539 L30.6778541,29.4272618 C30.2950939,29.8767801 29.8767801,30.2950939 29.4272618,30.6778541 L29.0326539,34.5934126 C28.2126372,35.0373091 27.3423778,35.4002363 26.4325948,35.671475 L23.4553659,33.2380629 C23.0768377,33.2774682 22.6926002,33.2976666 22.3036451,33.2976666 C22.03589,33.2976666 21.7703705,33.2880948 21.5074101,33.2692747 L18.5682214,35.6717745 C17.6580743,35.4005035 16.787476,35.0374725 15.9671574,34.5934126 L15.608443,31.0245919 C14.9788499,30.5405212 14.4031642,29.9898029 13.8919401,29.3829914 L10.4063987,29.0326539 C9.96250221,28.2126372 9.59957503,27.3423778 9.32833637,26.4325948 L11.420656,23.8720946 C11.3474826,23.359817 11.3096235,22.8361523 11.3096235,22.3036451 C11.3096235,21.8885301 11.3326303,21.4787887 11.3774383,21.0756264 L9.32833637,18.5672165 C9.59957503,17.6574335 9.96250221,16.7871741 10.4063987,15.9671574 L13.5496974,15.651584 C14.1522779,14.8598227 14.8598227,14.1522779 15.651584,13.5496974 L15.9671574,10.4063987 C16.7871741,9.96250221 17.6574335,9.59957503 18.5672165,9.32833637 L21.0756264,11.3774383 C21.4787887,11.3326303 21.8885301,11.3096235 22.3036451,11.3096235 C22.8361523,11.3096235 23.359817,11.3474826 23.8720946,11.420656 L26.4325948,9.32833637 Z M22.3036451,17.1992779 C19.4845809,17.1992779 17.1992779,19.4845809 17.1992779,22.3036451 C17.1992779,25.1227092 19.4845809,27.4080122 22.3036451,27.4080122 C25.1227092,27.4080122 27.4080122,25.1227092 27.4080122,22.3036451 C27.4080122,19.4845809 25.1227092,17.1992779 22.3036451,17.1992779 Z" id="Combined-Shape" fill="#4A4A4A"></path>
    </g>
</svg>