<?xml version="1.0" encoding="UTF-8"?>
<svg width="45px" height="45px" viewBox="0 0 45 45" version="1.1" xmlns="http://www.w3.org/2000/svg" xmlns:xlink="http://www.w3.org/1999/xlink">
    <title>tab/ folder</title>
    <g id="tab/-folder" stroke="none" stroke-width="1" fill="none" fill-rule="evenodd">
        <path d="M17.4648162,11.25 C18.0499343,11.25 18.5963391,11.542427 18.9209043,12.0292747 L18.9209043,12.0292747 L20.0303046,13.6933752 C20.2621369,14.0411236 20.652426,14.25 21.0703675,14.25 L21.0703675,14.25 L36,14.25 C36.4832492,14.25 36.9207492,14.4458754 37.2374369,14.7625631 C37.5541246,15.0792508 37.75,15.5167508 37.75,16 L37.75,16 L37.75,32 C37.75,32.7593915 37.4421958,33.4468915 36.9445436,33.9445436 C36.4468915,34.4421958 35.7593915,34.75 35,34.75 L35,34.75 L11,34.75 C10.2406085,34.75 9.55310847,34.4421958 9.05545635,33.9445436 C8.55780423,33.4468915 8.25,32.7593915 8.25,32 L8.25,32 L8.25,13 C8.25,12.5167508 8.44587542,12.0792508 8.76256313,11.7625631 C9.07925084,11.4458754 9.51675084,11.25 10,11.25 L10,11.25 Z" id="Rectangle-Copy-3" stroke="#E5E5EA" stroke-width="1.5"></path>
        <path d="M35,18.25 C35.7593915,18.25 36.4468915,18.5578042 36.9445436,19.0554564 C37.4421958,19.5531085 37.75,20.2406085 37.75,21 L37.75,21 L37.75,32 C37.75,32.7593915 37.4421958,33.4468915 36.9445436,33.9445436 C36.4468915,34.4421958 35.7593915,34.75 35,34.75 L35,34.75 L11,34.75 C10.2406085,34.75 9.55310847,34.4421958 9.05545635,33.9445436 C8.55780423,33.4468915 8.25,32.7593915 8.25,32 L8.25,32 L8.25,21 C8.25,20.2406085 8.55780423,19.5531085 9.05545635,19.0554564 C9.55310847,18.5578042 10.2406085,18.25 11,18.25 L11,18.25 Z" id="Rectangle-Copy-3" stroke="#E5E5EA" stroke-width="1.5"></path>
    </g>
</svg>