<?xml version="1.0" encoding="UTF-8"?>
<svg width="45px" height="45px" viewBox="0 0 45 45" version="1.1" xmlns="http://www.w3.org/2000/svg" xmlns:xlink="http://www.w3.org/1999/xlink">
    <title>tab/ folder_black</title>
    <g id="tab/-folder_black" stroke="none" stroke-width="1" fill="none" fill-rule="evenodd">
        <path d="M17.4648162,11.25 C18.0499343,11.25 18.5963391,11.542427 18.9209043,12.0292747 L18.9209043,12.0292747 L20.0303046,13.6933752 C20.2621369,14.0411236 20.652426,14.25 21.0703675,14.25 L21.0703675,14.25 L36,14.25 C36.4832492,14.25 36.9207492,14.4458754 37.2374369,14.7625631 C37.5541246,15.0792508 37.75,15.5167508 37.75,16 L37.75,16 L37.75,32 C37.75,32.7593915 37.4421958,33.4468915 36.9445436,33.9445436 C36.4468915,34.4421958 35.7593915,34.75 35,34.75 L35,34.75 L11,34.75 C10.2406085,34.75 9.55310847,34.4421958 9.05545635,33.9445436 C8.55780423,33.4468915 8.25,32.7593915 8.25,32 L8.25,32 L8.25,13 C8.25,12.5167508 8.44587542,12.0792508 8.76256313,11.7625631 C9.07925084,11.4458754 9.51675084,11.25 10,11.25 L10,11.25 Z" id="Rectangle-Copy-3" stroke="#4A4A4A" stroke-width="1.5"></path>
        <path d="M34.4361148,18.25 C35.5400315,18.25 35.9297975,18.3914508 36.3305448,18.6057728 C36.7891054,18.8510137 37.1489863,19.2108946 37.3942272,19.6694552 C37.6085492,20.0702025 37.75,20.4599685 37.75,21.5638852 L37.75,21.5638852 L37.75,31.4361148 C37.75,32.5400315 37.6085492,32.9297975 37.3942272,33.3305448 C37.1489863,33.7891054 36.7891054,34.1489863 36.3305448,34.3942272 C35.9297975,34.6085492 35.5400315,34.75 34.4361148,34.75 L34.4361148,34.75 L11.5638852,34.75 C10.4599685,34.75 10.0702025,34.6085492 9.66945515,34.3942272 C9.21089463,34.1489863 8.85101365,33.7891054 8.60577281,33.3305448 C8.39145076,32.9297975 8.25,32.5400315 8.25,31.4361148 L8.25,31.4361148 L8.25,21.5638852 C8.25,20.4599685 8.39145076,20.0702025 8.60577281,19.6694552 C8.85101365,19.2108946 9.21089463,18.8510137 9.66945515,18.6057728 C10.0702025,18.3914508 10.4599685,18.25 11.5638852,18.25 L11.5638852,18.25 Z" id="Rectangle-Copy-3" stroke="#4A4A4A" stroke-width="1.5"></path>
    </g>
</svg>