<?xml version="1.0" encoding="UTF-8"?>
<svg width="45px" height="45px" viewBox="0 0 45 45" version="1.1" xmlns="http://www.w3.org/2000/svg" xmlns:xlink="http://www.w3.org/1999/xlink">
    <title>tab/ year_black</title>
    <g id="tab/-year_black" stroke="none" stroke-width="1" fill="none" fill-rule="evenodd">
        <g id="20-25" transform="translate(10.007000, 6.130000)" fill="#4A4A4A" fill-rule="nonzero">
            <path d="M0,4.028 C0.0126666667,3.42 0.133,2.869 0.361,2.375 C0.589,1.881 0.905666667,1.45983333 1.311,1.1115 C1.71633333,0.763166667 2.20716667,0.490833333 2.7835,0.2945 C3.35983333,0.0981666667 3.99633333,0 4.693,0 C5.35166667,0 5.95333333,0.095 6.498,0.285 C7.04266667,0.475 7.50816667,0.747333333 7.8945,1.102 C8.28083333,1.45666667 8.5785,1.87783333 8.7875,2.3655 C8.9965,2.85316667 9.101,3.401 9.101,4.009 C9.101,4.47766667 9.04083333,4.93366667 8.9205,5.377 C8.80016667,5.82033333 8.61016667,6.2605 8.3505,6.6975 C8.09083333,7.1345 7.75833333,7.5715 7.353,8.0085 C6.94766667,8.4455 6.46633333,8.89833333 5.909,9.367 L3.933,11.001 C3.629,11.2163333 3.35666667,11.3873333 3.116,11.514 C2.97666667,11.59 2.84366667,11.6533333 2.717,11.704 L2.717,11.78 C2.89433333,11.7673333 3.08433333,11.7546667 3.287,11.742 C3.46433333,11.742 3.6575,11.7388333 3.8665,11.7325 C4.0755,11.7261667 4.28766667,11.723 4.503,11.723 L9.272,11.723 L9.272,13.87 L0.095,13.87 L0.095,11.362 L4.465,7.809 C5.263,7.15033333 5.83616667,6.53283333 6.1845,5.9565 C6.53283333,5.38016667 6.707,4.769 6.707,4.123 C6.707,3.50233333 6.52333333,3.00833333 6.156,2.641 C5.78866667,2.27366667 5.28833333,2.09 4.655,2.09 C3.971,2.09 3.42633333,2.26733333 3.021,2.622 C2.61566667,2.97666667 2.413,3.44533333 2.413,4.028 L0,4.028 Z" id="Path"></path>
            <path d="M13.83325,4.18 C13.83325,3.54666667 13.9409167,2.9735 14.15625,2.4605 C14.3715833,1.9475 14.6755833,1.50733333 15.06825,1.14 C15.4609167,0.772666667 15.9390833,0.490833333 16.50275,0.2945 C17.0664167,0.0981666667 17.69025,0 18.37425,0 C19.05825,0 19.6820833,0.0981666667 20.24575,0.2945 C20.8094167,0.490833333 21.2875833,0.772666667 21.68025,1.14 C22.0729167,1.50733333 22.3769167,1.9475 22.59225,2.4605 C22.8075833,2.9735 22.91525,3.54666667 22.91525,4.18 L22.91525,9.861 C22.91525,10.4816667 22.8075833,11.0516667 22.59225,11.571 C22.3769167,12.0903333 22.06975,12.5336667 21.67075,12.901 C21.27175,13.2683333 20.7935833,13.5533333 20.23625,13.756 C19.6789167,13.9586667 19.05825,14.06 18.37425,14.06 C17.69025,14.06 17.0664167,13.9618333 16.50275,13.7655 C15.9390833,13.5691667 15.4609167,13.2873333 15.06825,12.92 C14.6755833,12.5526667 14.3715833,12.1093333 14.15625,11.59 C13.9409167,11.0706667 13.83325,10.4943333 13.83325,9.861 L13.83325,4.18 Z M16.15125,9.861 C16.15125,10.507 16.3539167,11.02 16.75925,11.4 C17.1645833,11.78 17.7029167,11.97 18.37425,11.97 C19.0455833,11.97 19.5839167,11.78 19.98925,11.4 C20.3945833,11.02 20.59725,10.507 20.59725,9.861 L20.59725,4.18 C20.59725,3.534 20.3945833,3.021 19.98925,2.641 C19.5839167,2.261 19.0455833,2.071 18.37425,2.071 C17.7029167,2.071 17.1645833,2.261 16.75925,2.641 C16.3539167,3.021 16.15125,3.534 16.15125,4.18 L16.15125,9.861 Z M17.48125,5.719 C17.48125,5.415 17.5635833,5.17116667 17.72825,4.9875 C17.8929167,4.80383333 18.10825,4.712 18.37425,4.712 C18.64025,4.712 18.8555833,4.80383333 19.02025,4.9875 C19.1849167,5.17116667 19.26725,5.415 19.26725,5.719 L19.26725,8.531 C19.26725,8.82233333 19.1849167,9.05983333 19.02025,9.2435 C18.8555833,9.42716667 18.64025,9.519 18.37425,9.519 C18.10825,9.519 17.8929167,9.42716667 17.72825,9.2435 C17.5635833,9.05983333 17.48125,8.82233333 17.48125,8.531 L17.48125,5.719 Z" id="Shape"></path>
            <path d="M0,22.028 C0.0126666667,21.42 0.133,20.869 0.361,20.375 C0.589,19.881 0.905666667,19.4598333 1.311,19.1115 C1.71633333,18.7631667 2.20716667,18.4908333 2.7835,18.2945 C3.35983333,18.0981667 3.99633333,18 4.693,18 C5.35166667,18 5.95333333,18.095 6.498,18.285 C7.04266667,18.475 7.50816667,18.7473333 7.8945,19.102 C8.28083333,19.4566667 8.5785,19.8778333 8.7875,20.3655 C8.9965,20.8531667 9.101,21.401 9.101,22.009 C9.101,22.4776667 9.04083333,22.9336667 8.9205,23.377 C8.80016667,23.8203333 8.61016667,24.2605 8.3505,24.6975 C8.09083333,25.1345 7.75833333,25.5715 7.353,26.0085 C6.94766667,26.4455 6.46633333,26.8983333 5.909,27.367 L3.933,29.001 C3.629,29.2163333 3.35666667,29.3873333 3.116,29.514 C2.97666667,29.59 2.84366667,29.6533333 2.717,29.704 L2.717,29.78 C2.89433333,29.7673333 3.08433333,29.7546667 3.287,29.742 C3.46433333,29.742 3.6575,29.7388333 3.8665,29.7325 C4.0755,29.7261667 4.28766667,29.723 4.503,29.723 L9.272,29.723 L9.272,31.87 L0.095,31.87 L0.095,29.362 L4.465,25.809 C5.263,25.1503333 5.83616667,24.5328333 6.1845,23.9565 C6.53283333,23.3801667 6.707,22.769 6.707,22.123 C6.707,21.5023333 6.52333333,21.0083333 6.156,20.641 C5.78866667,20.2736667 5.28833333,20.09 4.655,20.09 C3.971,20.09 3.42633333,20.2673333 3.021,20.622 C2.61566667,20.9766667 2.413,21.4453333 2.413,22.028 L0,22.028 Z" id="Path"></path>
            <path d="M16.24625,28.735 C16.36025,29.1276667 16.6104167,29.4443333 16.99675,29.685 C17.3830833,29.9256667 17.8549167,30.046 18.41225,30.046 C19.09625,30.046 19.63775,29.8496667 20.03675,29.457 C20.43575,29.0643333 20.63525,28.545 20.63525,27.899 L20.63525,27.12 C20.63525,26.474 20.43575,25.9546667 20.03675,25.562 C19.63775,25.1693333 19.09625,24.973 18.41225,24.973 C17.53825,24.973 16.91125,25.2326667 16.53125,25.752 L14.19425,25.752 L14.28925,18.19 L22.47825,18.19 L22.47825,20.28 L16.55025,20.28 L16.47425,24.517 L16.56925,24.517 C16.68325,24.251 16.85425,24.0103333 17.08225,23.795 C17.27225,23.6176667 17.5350833,23.4561667 17.87075,23.3105 C18.2064167,23.1648333 18.64025,23.092 19.17225,23.092 C19.7675833,23.092 20.30275,23.187 20.77775,23.377 C21.25275,23.567 21.6580833,23.8361667 21.99375,24.1845 C22.3294167,24.5328333 22.5890833,24.954 22.77275,25.448 C22.9564167,25.942 23.04825,26.4993333 23.04825,27.12 L23.04825,27.899 C23.04825,28.5323333 22.9374167,29.1055 22.71575,29.6185 C22.4940833,30.1315 22.18375,30.5685 21.78475,30.9295 C21.38575,31.2905 20.90125,31.5691667 20.33125,31.7655 C19.76125,31.9618333 19.1215833,32.06 18.41225,32.06 C17.7789167,32.06 17.1994167,31.9808333 16.67375,31.8225 C16.1480833,31.6641667 15.68575,31.4425 15.28675,31.1575 C14.88775,30.8725 14.5615833,30.5241667 14.30825,30.1125 C14.0549167,29.7008333 13.89025,29.2416667 13.81425,28.735 L16.24625,28.735 Z" id="Path"></path>
        </g>
    </g>
</svg>