<?xml version="1.0" encoding="UTF-8"?>
<svg width="45px" height="45px" viewBox="0 0 45 45" version="1.1" xmlns="http://www.w3.org/2000/svg" xmlns:xlink="http://www.w3.org/1999/xlink">
    <title>tab/ year</title>
    <g id="tab/-year" stroke="none" stroke-width="1" fill="none" fill-rule="evenodd">
        <g id="20-24" transform="translate(10.702000, 7.111000)" fill="#E5E5EA" fill-rule="nonzero">
            <path d="M0,3.952 C0.0126666667,3.35666667 0.129833333,2.81833333 0.3515,2.337 C0.573166667,1.85566667 0.8835,1.444 1.2825,1.102 C1.6815,0.76 2.15966667,0.494 2.717,0.304 C3.27433333,0.114 3.88866667,0.019 4.56,0.019 C5.206,0.019 5.79183333,0.110833333 6.3175,0.2945 C6.84316667,0.478166667 7.296,0.741 7.676,1.083 C8.056,1.425 8.34733333,1.83666667 8.55,2.318 C8.75266667,2.79933333 8.854,3.33766667 8.854,3.933 C8.854,4.921 8.588,5.8615 8.056,6.7545 C7.524,7.6475 6.67533333,8.588 5.51,9.576 L3.382,11.362 C3.28066667,11.4506667 3.173,11.5298333 3.059,11.5995 C2.945,11.6691667 2.83733333,11.7356667 2.736,11.799 C2.622,11.8623333 2.508,11.9193333 2.394,11.97 L2.394,12.046 C2.584,12.0333333 2.774,12.0206667 2.964,12.008 C3.14133333,12.008 3.33133333,12.0048333 3.534,11.9985 C3.73666667,11.9921667 3.92666667,11.989 4.104,11.989 L9.006,11.989 L9.006,13.889 L0.095,13.889 L0.095,11.647 L4.142,8.284 C4.598,7.89133333 4.99066667,7.51766667 5.32,7.163 C5.64933333,6.80833333 5.9185,6.46 6.1275,6.118 C6.3365,5.776 6.4885,5.434 6.5835,5.092 C6.6785,4.75 6.726,4.389 6.726,4.009 C6.726,3.35033333 6.52966667,2.82783333 6.137,2.4415 C5.74433333,2.05516667 5.21233333,1.862 4.541,1.862 C3.819,1.862 3.23633333,2.052 2.793,2.432 C2.34966667,2.812 2.128,3.31866667 2.128,3.952 L0,3.952 Z" id="2"></path>
            <path d="M14.609,4.142 C14.609,3.50866667 14.7135,2.93866667 14.9225,2.432 C15.1315,1.92533333 15.426,1.4915 15.806,1.1305 C16.186,0.7695 16.6483333,0.490833333 17.193,0.2945 C17.7376667,0.0981666667 18.3456667,0 19.017,0 C19.6756667,0 20.2741667,0.0981666667 20.8125,0.2945 C21.3508333,0.490833333 21.81,0.7695 22.19,1.1305 C22.57,1.4915 22.8613333,1.92533333 23.064,2.432 C23.2666667,2.93866667 23.368,3.50866667 23.368,4.142 L23.368,9.918 C23.368,10.5386667 23.2635,11.1055 23.0545,11.6185 C22.8455,12.1315 22.551,12.5716667 22.171,12.939 C21.791,13.3063333 21.335,13.5881667 20.803,13.7845 C20.271,13.9808333 19.6756667,14.079 19.017,14.079 C18.3456667,14.079 17.7376667,13.9808333 17.193,13.7845 C16.6483333,13.5881667 16.186,13.3095 15.806,12.9485 C15.426,12.5875 15.1315,12.1505 14.9225,11.6375 C14.7135,11.1245 14.609,10.5513333 14.609,9.918 L14.609,4.142 Z M16.661,9.918 C16.661,10.6273333 16.8731667,11.191 17.2975,11.609 C17.7218333,12.027 18.295,12.236 19.017,12.236 C19.7136667,12.236 20.271,12.027 20.689,11.609 C21.107,11.191 21.316,10.6273333 21.316,9.918 L21.316,4.142 C21.316,3.44533333 21.107,2.888 20.689,2.47 C20.271,2.052 19.7136667,1.843 19.017,1.843 C18.295,1.843 17.7218333,2.052 17.2975,2.47 C16.8731667,2.888 16.661,3.44533333 16.661,4.142 L16.661,9.918 Z M18.086,5.681 C18.086,5.377 18.1683333,5.13 18.333,4.94 C18.4976667,4.75 18.7256667,4.655 19.017,4.655 C19.2956667,4.655 19.5173333,4.75 19.682,4.94 C19.8466667,5.13 19.929,5.377 19.929,5.681 L19.929,8.588 C19.929,8.892 19.8466667,9.139 19.682,9.329 C19.5173333,9.519 19.2956667,9.614 19.017,9.614 C18.7256667,9.614 18.4976667,9.519 18.333,9.329 C18.1683333,9.139 18.086,8.892 18.086,8.588 L18.086,5.681 Z" id="0"></path>
            <path d="M0,21.952 C0.0126666667,21.3566667 0.129833333,20.8183333 0.3515,20.337 C0.573166667,19.8556667 0.8835,19.444 1.2825,19.102 C1.6815,18.76 2.15966667,18.494 2.717,18.304 C3.27433333,18.114 3.88866667,18.019 4.56,18.019 C5.206,18.019 5.79183333,18.1108333 6.3175,18.2945 C6.84316667,18.4781667 7.296,18.741 7.676,19.083 C8.056,19.425 8.34733333,19.8366667 8.55,20.318 C8.75266667,20.7993333 8.854,21.3376667 8.854,21.933 C8.854,22.921 8.588,23.8615 8.056,24.7545 C7.524,25.6475 6.67533333,26.588 5.51,27.576 L3.382,29.362 C3.28066667,29.4506667 3.173,29.5298333 3.059,29.5995 C2.945,29.6691667 2.83733333,29.7356667 2.736,29.799 C2.622,29.8623333 2.508,29.9193333 2.394,29.97 L2.394,30.046 C2.584,30.0333333 2.774,30.0206667 2.964,30.008 C3.14133333,30.008 3.33133333,30.0048333 3.534,29.9985 C3.73666667,29.9921667 3.92666667,29.989 4.104,29.989 L9.006,29.989 L9.006,31.889 L0.095,31.889 L0.095,29.647 L4.142,26.284 C4.598,25.8913333 4.99066667,25.5176667 5.32,25.163 C5.64933333,24.8083333 5.9185,24.46 6.1275,24.118 C6.3365,23.776 6.4885,23.434 6.5835,23.092 C6.6785,22.75 6.726,22.389 6.726,22.009 C6.726,21.3503333 6.52966667,20.8278333 6.137,20.4415 C5.74433333,20.0551667 5.21233333,19.862 4.541,19.862 C3.819,19.862 3.23633333,20.052 2.793,20.432 C2.34966667,20.812 2.128,21.3186667 2.128,21.952 L0,21.952 Z" id="2"></path>
            <polygon id="4" points="20.1 18.209 22.399 18.209 16.718 26.493 16.718 27.234 20.898 27.234 20.898 24.099 22.988 24.099 22.988 31.889 20.898 31.889 20.898 29.077 14.704 29.077 14.704 26.113"></polygon>
        </g>
    </g>
</svg>