<?xml version="1.0" encoding="UTF-8"?>
<svg width="100px" height="100px" viewBox="0 0 100 100" version="1.1" xmlns="http://www.w3.org/2000/svg" xmlns:xlink="http://www.w3.org/1999/xlink">
    <title>logo-register</title>
    <g id="logo-register" stroke="none" stroke-width="1" fill="none" fill-rule="evenodd">
        <circle id="Oval" fill="#FFCC00" cx="50" cy="50" r="50"></circle>
        <path d="M54.2719364,37.2151651 C55.5055183,37.2303836 56.3326159,37.9391336 56.5391186,39.1370514 C58.3422133,49.615028 60.1398736,60.0940917 61.9516631,70.5720683 C62.0853464,71.3449536 61.9505762,72.0200053 61.4364932,72.5961364 C60.3724609,73.787532 59.2953863,74.9680572 58.2096168,76.1398861 C56.0228619,78.4998495 53.8274121,80.8511166 51.6363098,83.2067319 C50.6505311,84.2655086 49.320219,84.2644216 48.3344403,83.2034708 C45.2032072,79.8314733 42.0795822,76.4518666 38.9374805,73.0907395 C38.1712468,72.2711115 37.8571454,71.4090889 38.0603875,70.2503045 C39.8765244,59.8821189 41.6481002,49.5063241 43.4359788,39.1327033 C43.6413947,37.9380465 44.4717529,37.2303836 45.7053348,37.2151651 C47.133464,37.1977724 48.5605064,37.2108169 49.9886356,37.2108169 C51.4167648,37.2108169 52.8438071,37.1966854 54.2719364,37.2151651 Z M54.5582143,23.0073375 C55.8265756,23.0105986 56.5286848,23.7215227 56.5330322,24.9987944 C56.5428139,27.3652801 56.5439008,29.7306787 56.5319454,32.0960773 C56.5254242,33.3342156 55.8189676,34.0429655 54.5886463,34.0538359 C53.0333549,34.0668804 51.4769766,34.0570971 49.9216852,34.0570971 C48.4305184,34.0570971 46.9382647,34.0647063 45.4470978,34.054923 C44.1363491,34.0462267 43.4440216,33.3516082 43.4396742,32.0308549 C43.4320662,29.68611 43.4309793,27.3413652 43.4396742,24.9966203 C43.4451084,23.7204356 44.1472176,23.0105986 45.4166658,23.0073375 C48.4642109,22.9975542 51.511756,22.9975542 54.5582143,23.0073375 Z" id="Combined-Shape" fill="#4A4A4A"></path>
    </g>
</svg>