<?xml version="1.0" encoding="UTF-8"?>
<svg width="100px" height="100px" viewBox="0 0 100 100" version="1.1" xmlns="http://www.w3.org/2000/svg" xmlns:xlink="http://www.w3.org/1999/xlink">
    <title>logo-change-password</title>
    <g id="logo-change-password" stroke="none" stroke-width="1" fill="none" fill-rule="evenodd">
        <circle id="Oval" fill="#FFCC00" cx="50" cy="50" r="50"></circle>
        <path d="M49.9998158,71.5659924 C45.5081929,71.5659924 41.8668542,67.9418397 41.8668542,63.4714158 C41.8668542,59.000992 45.5081929,55.3775727 49.9998158,55.3775727 C54.4914387,55.3775727 58.1327774,59.000992 58.1327774,63.4714158 C58.1327774,67.9418397 54.4914387,71.5659924 49.9998158,71.5659924 L49.9998158,71.5659924 Z M46.2464813,29.2296999 L46.2464813,26.0609497 L50.0690764,26.0609497 L50.0690764,48.9432717 L46.2464813,48.9432717 L46.2464813,45.2729188 C46.2346923,45.2729188 46.22364,45.2765855 46.211851,45.2765855 C45.2517813,45.2765855 44.4737049,44.5021813 44.4737049,43.5466429 C44.4737049,42.5918378 45.2517813,41.8174337 46.211851,41.8174337 C46.22364,41.8174337 46.2346923,41.820367 46.2464813,41.8211004 L46.2464813,40.1278247 C46.2346923,40.1278247 46.22364,40.130758 46.211851,40.130758 C45.4824044,40.130758 44.8907421,39.5426216 44.8907421,38.8166177 C44.8907421,38.0906138 45.4824044,37.5024773 46.211851,37.5024773 C46.22364,37.5024773 46.2346923,37.5054107 46.2464813,37.5054107 L46.2464813,33.7888575 C46.2346923,33.7888575 46.22364,33.7925242 46.211851,33.7925242 C44.9445296,33.7925242 43.9174098,32.7702521 43.9174098,31.508912 C43.9174098,30.2483053 44.9445296,29.2260332 46.211851,29.2260332 C46.22364,29.2260332 46.2346923,29.2296999 46.2464813,29.2296999 Z M52.6066665,48.9432717 L54.2748152,48.9432717 L54.2748152,26.0609497 L52.6066665,26.0609497 L52.6066665,48.9432717 Z M55.8567565,48.9432717 L57.5249052,48.9432717 L57.5249052,26.0609497 L55.8567565,26.0609497 L55.8567565,48.9432717 Z M62.4077767,49.8379431 L62.4077767,26.8390205 C62.4077767,24.7189425 60.6799461,23 58.5498145,23 L41.4498171,23 C39.3196855,23 37.5918548,24.7189425 37.5918548,26.8390205 L37.5918548,49.8379431 C31.9994306,51.8736873 28,57.2006491 28,63.4714158 C28,71.495592 34.5348103,78.0002933 42.5970377,78.0002933 L57.4025939,78.0002933 C65.4648213,78.0002933 72.0003684,71.495592 72.0003684,63.4714158 C72.0003684,57.2006491 68.0002009,51.8736873 62.4077767,49.8379431 L62.4077767,49.8379431 Z" id="Fill-1" fill="#4A4A4A"></path>
    </g>
</svg>