<?xml version="1.0" encoding="UTF-8"?>
<svg width="45px" height="45px" viewBox="0 0 45 45" version="1.1" xmlns="http://www.w3.org/2000/svg" xmlns:xlink="http://www.w3.org/1999/xlink">
    <title>tabicon/ about-black</title>
    <g id="tabicon/-about-black" stroke="none" stroke-width="1" fill="none" fill-rule="evenodd">
        <path d="M16,33 L16,30.7490196 L21.7142857,30.7490196 L21.7142857,20.1529412 L16.7142857,20.1529412 L16.7142857,17.9019608 L24.2857143,17.9019608 L24.2857143,30.7490196 L29,30.7490196 L29,33 L16,33 Z M22.2857143,12 L22.8571429,12 C23.4095238,12 23.8571429,12.1555556 24.2,12.4666667 C24.5428571,12.7777778 24.7142857,13.1803922 24.7142857,13.6745098 C24.7142857,14.1686275 24.5428571,14.5620915 24.2,14.854902 C23.8571429,15.1477124 23.4095238,15.2941176 22.8571429,15.2941176 L22.2857143,15.2941176 C21.7333333,15.2941176 21.2857143,15.1522876 20.9428571,14.8686275 C20.6,14.5849673 20.4285714,14.1869281 20.4285714,13.6745098 C20.4285714,13.1803922 20.6,12.7777778 20.9428571,12.4666667 C21.2857143,12.1555556 21.7333333,12 22.2857143,12 Z" id="i" fill="#4A4A4A" fill-rule="nonzero"></path>
    </g>
</svg>