<?xml version="1.0" encoding="UTF-8"?>
<svg width="45px" height="45px" viewBox="0 0 45 45" version="1.1" xmlns="http://www.w3.org/2000/svg" xmlns:xlink="http://www.w3.org/1999/xlink">
    <title>tabicon/ bill</title>
    <g id="tabicon/-bill" stroke="none" stroke-width="1" fill="none" fill-rule="evenodd">
        <rect id="Rectangle" stroke="#E5E5EA" stroke-width="1.5" x="11.25" y="10.25" width="22.5" height="25.5" rx="2"></rect>
        <path d="M14.5,14 C15.0522847,14 15.5,14.4477153 15.5,15 C15.5,15.5522847 15.0522847,16 14.5,16 C13.9477153,16 13.5,15.5522847 13.5,15 C13.5,14.4477153 13.9477153,14 14.5,14 Z M18.5,14 C19.0522847,14 19.5,14.4477153 19.5,15 C19.5,15.5522847 19.0522847,16 18.5,16 C17.9477153,16 17.5,15.5522847 17.5,15 C17.5,14.4477153 17.9477153,14 18.5,14 Z M22.5,14 C23.0522847,14 23.5,14.4477153 23.5,15 C23.5,15.5522847 23.0522847,16 22.5,16 C21.9477153,16 21.5,15.5522847 21.5,15 C21.5,14.4477153 21.9477153,14 22.5,14 Z M26.5,14 C27.0522847,14 27.5,14.4477153 27.5,15 C27.5,15.5522847 27.0522847,16 26.5,16 C25.9477153,16 25.5,15.5522847 25.5,15 C25.5,14.4477153 25.9477153,14 26.5,14 Z M30.5,14 C31.0522847,14 31.5,14.4477153 31.5,15 C31.5,15.5522847 31.0522847,16 30.5,16 C29.9477153,16 29.5,15.5522847 29.5,15 C29.5,14.4477153 29.9477153,14 30.5,14 Z" id="Combined-Shape" fill="#E5E5EA"></path>
        <polygon id="￥" fill="#E5E5EA" fill-rule="nonzero" points="18.3333333 20 21.4583333 24.4444444 18.3333333 24.4444444 18.3333333 25.5555556 21.4583333 25.5555556 21.4583333 26.6666667 18.3333333 26.6666667 18.3333333 27.7777778 21.4583333 27.7777778 21.4583333 30 23.5416667 30 23.5416667 27.7777778 26.6666667 27.7777778 26.6666667 26.6666667 23.5416667 26.6666667 23.5416667 25.5555556 26.6666667 25.5555556 26.6666667 24.4444444 23.5416667 24.4444444 26.6666667 20 24.5833333 20 22.5 23.3333333 20.4166667 20"></polygon>
    </g>
</svg>