<?xml version="1.0" encoding="UTF-8"?>
<svg width="45px" height="45px" viewBox="0 0 45 45" version="1.1" xmlns="http://www.w3.org/2000/svg" xmlns:xlink="http://www.w3.org/1999/xlink">
    <title>tabicon/ bill-black</title>
    <g id="tabicon/-bill-black" stroke="none" stroke-width="1" fill="none" fill-rule="evenodd">
        <path d="M35,10.25 C37.4852814,10.25 39.5,12.2647186 39.5,14.75 L39.5,31.25 C39.5,33.7352814 37.4852814,35.75 35,35.75 L12.5,35.75 C10.0147186,35.75 8,33.7352814 8,31.25 L8,30 L9.75,30 L9.75,31 C9.75,32.5976809 10.99892,33.9036609 12.5737272,33.9949073 L12.75,34 L34.75,34 C36.3476809,34 37.6536609,32.75108 37.7449073,31.1762728 L37.75,31 L37.75,15 C37.75,13.3431458 36.4068542,12 34.75,12 L12.75,12 C11.1523191,12 9.84633912,13.24892 9.75509269,14.8237272 L9.75,15 L9.75,16 L8,16 L8,14.75 C8,12.2647186 10.0147186,10.25 12.5,10.25 L35,10.25 Z M9.75,21 L9.75,25 L8,25 L8,21 L9.75,21 Z" id="Combined-Shape" fill="#4A4A4A"></path>
        <rect id="Rectangle" fill="#4A4A4A" x="6" y="17" width="6" height="3"></rect>
        <rect id="Rectangle-Copy-2" fill="#4A4A4A" x="6" y="26" width="6" height="3"></rect>
        <polygon id="￥" fill="#4A4A4A" fill-rule="nonzero" points="18.6952381 17 22.8202381 22.7777778 18.6952381 22.7777778 18.6952381 24.2222222 22.8202381 24.2222222 22.8202381 25.6666667 18.6952381 25.6666667 18.6952381 27.1111111 22.8202381 27.1111111 22.8202381 30 25.5702381 30 25.5702381 27.1111111 29.6952381 27.1111111 29.6952381 25.6666667 25.5702381 25.6666667 25.5702381 24.2222222 29.6952381 24.2222222 29.6952381 22.7777778 25.5702381 22.7777778 29.6952381 17 26.9452381 17 24.1952381 21.3333333 21.4452381 17"></polygon>
    </g>
</svg>