<?xml version="1.0" encoding="UTF-8"?>
<svg width="45px" height="45px" viewBox="0 0 45 45" version="1.1" xmlns="http://www.w3.org/2000/svg" xmlns:xlink="http://www.w3.org/1999/xlink">
    <title>tabicon/ bill-black</title>
    <g id="tabicon/-bill-black" stroke="none" stroke-width="1" fill="none" fill-rule="evenodd">
        <path d="M35,10 C37.4852814,10 39.5,12.0147186 39.5,14.5 L39.5,31 C39.5,33.4852814 37.4852814,35.5 35,35.5 L12.5,35.5 C10.0147186,35.5 8,33.4852814 8,31 L8,30 L9.5,30 L9.5,31 C9.5,32.5976809 10.74892,33.9036609 12.3237272,33.9949073 L12.5,34 L35,34 C36.5976809,34 37.9036609,32.75108 37.9949073,31.1762728 L38,31 L38,14.5 C38,12.8431458 36.6568542,11.5 35,11.5 L12.5,11.5 C10.9023191,11.5 9.59633912,12.74892 9.50509269,14.3237272 L9.5,14.5 L9.5,16 L8,16 L8,14.5 C8,12.0147186 10.0147186,10 12.5,10 L35,10 Z M9.5,21 L9.5,25 L8,25 L8,21 L9.5,21 Z" id="Combined-Shape" fill="#4A4A4A"></path>
        <rect id="Rectangle" fill="#4A4A4A" x="6" y="17" width="5.5" height="3"></rect>
        <rect id="Rectangle-Copy-2" fill="#4A4A4A" x="6" y="26" width="5.5" height="3"></rect>
        <polygon id="￥" fill="#4A4A4A" fill-rule="nonzero" points="18.6952381 16 22.8202381 22.2222222 18.6952381 22.2222222 18.6952381 23.7777778 22.8202381 23.7777778 22.8202381 25.3333333 18.6952381 25.3333333 18.6952381 26.8888889 22.8202381 26.8888889 22.8202381 30 25.5702381 30 25.5702381 26.8888889 29.6952381 26.8888889 29.6952381 25.3333333 25.5702381 25.3333333 25.5702381 23.7777778 29.6952381 23.7777778 29.6952381 22.2222222 25.5702381 22.2222222 29.6952381 16 26.9452381 16 24.1952381 20.6666667 21.4452381 16"></polygon>
    </g>
</svg>