<?xml version="1.0" encoding="UTF-8"?>
<svg width="45px" height="45px" viewBox="0 0 45 45" version="1.1" xmlns="http://www.w3.org/2000/svg" xmlns:xlink="http://www.w3.org/1999/xlink">
    <title>tabicon / delete-black</title>
    <g id="tabicon-/-delete-black" stroke="none" stroke-width="1" fill="none" fill-rule="evenodd">
        <path d="M31.0323903,33.3845616 L31.8622386,15.9755501 L33.2603526,15.9755501 C33.6662567,15.9755501 34,15.6395389 34,15.2217953 C34,14.8131331 33.6662567,14.4771219 33.2603526,14.4771219 L28.00164,14.4771219 L28.00164,12.6608453 C28.00164,11.0625218 26.9102091,10 25.1873719,10 L20.7945879,10 C19.0807708,10 17.9893399,11.0625218 17.9893399,12.6608453 L17.9893399,14.4771219 L12.7486675,14.4771219 C12.3427634,14.4771219 12,14.8222145 12,15.2217953 C12,15.6395389 12.3427634,15.9755501 12.7486675,15.9755501 L14.1467815,15.9755501 L14.9856499,33.393643 C15.0578106,34.9556409 16.1312013,36 17.7097171,36 L28.3083231,36 C29.8597786,36 30.9512095,34.9465596 31.0323903,33.3845616 Z M19.5768758,12.7516591 C19.5768758,12.0251484 20.1090611,11.4893468 20.902829,11.4893468 L25.0881509,11.4893468 C25.8819188,11.4893468 26.4231242,12.0251484 26.4231242,12.7516591 L26.4231242,14.4771219 L19.5768758,14.4771219 L19.5768758,12.7516591 Z M17.8450185,34.4924904 C17.1324313,34.4924904 16.5731857,33.938526 16.5371054,33.2210968 L15.698237,15.9755501 L30.2747027,15.9755501 L29.4719147,33.2210968 C29.4358344,33.9476074 28.8946289,34.4924904 28.1640016,34.4924904 L17.8450185,34.4924904 Z M26.4682247,32.2857143 C26.8109881,32.2857143 27.0635506,32.0132728 27.0725707,31.6318547 L27.4333743,18.9451624 C27.4423944,18.5728257 27.1898319,18.2731401 26.8470685,18.2731401 C26.5223452,18.2731401 26.2607626,18.5728257 26.2517425,18.936081 L25.8819188,31.6136919 C25.8728987,31.9860286 26.1254613,32.2857143 26.4682247,32.2857143 Z M19.5317753,32.2857143 C19.8835588,32.2857143 20.1361214,31.9860286 20.1271013,31.6136919 L19.7572776,18.936081 C19.7482575,18.5728257 19.4776548,18.2731401 19.1529315,18.2731401 C18.8191882,18.2731401 18.5576056,18.5637443 18.5666257,18.9451624 L18.9454695,31.6318547 C18.9544895,32.0132728 19.198032,32.2857143 19.5317753,32.2857143 Z M23.6178762,31.6227733 C23.6178762,31.9860286 23.3382534,32.2857143 23.00451,32.2857143 C22.6707667,32.2857143 22.3911439,31.9860286 22.3911439,31.6227733 L22.3911439,18.936081 C22.3911439,18.5728257 22.6707667,18.2731401 23.00451,18.2731401 C23.3472735,18.2731401 23.6178762,18.5728257 23.6178762,18.936081 L23.6178762,31.6227733 Z" id="delete" fill="#4A4A4A" fill-rule="nonzero"></path>
    </g>
</svg>
