<?xml version="1.0" encoding="UTF-8"?>
<svg width="45px" height="45px" viewBox="0 0 45 45" version="1.1" xmlns="http://www.w3.org/2000/svg" xmlns:xlink="http://www.w3.org/1999/xlink">
    <title>tabicon/ folder-black</title>
    <g id="tabicon/-folder-black" stroke="none" stroke-width="1" fill="none" fill-rule="evenodd">
        <path d="M17.4648162,11 C18.1335226,11 18.7579853,11.3342023 19.1289168,11.8905996 L19.1289168,11.8905996 L20.2383172,13.5547002 C20.423783,13.8328989 20.7360143,14 21.0703675,14 L21.0703675,14 L34,14 C35.1045695,14 36.1045695,14.4477153 36.8284271,15.1715729 C37.5522847,15.8954305 38,16.8954305 38,18 L38,18 L38,31 C38,32.1045695 37.5522847,33.1045695 36.8284271,33.8284271 C36.1045695,34.5522847 35.1045695,35 34,35 L34,35 L12,35 C10.8954305,35 9.8954305,34.5522847 9.17157288,33.8284271 C8.44771525,33.1045695 8,32.1045695 8,31 L8,31 L8,15 C8,13.8954305 8.44771525,12.8954305 9.17157288,12.1715729 C9.8954305,11.4477153 10.8954305,11 12,11 L12,11 Z" id="Rectangle-Copy-3" stroke="#4A4A4A" stroke-width="2"></path>
        <path d="M34,18 C35.1045695,18 36.1045695,18.4477153 36.8284271,19.1715729 C37.5522847,19.8954305 38,20.8954305 38,22 L38,22 L38,31 C38,32.1045695 37.5522847,33.1045695 36.8284271,33.8284271 C36.1045695,34.5522847 35.1045695,35 34,35 L34,35 L12,35 C10.8954305,35 9.8954305,34.5522847 9.17157288,33.8284271 C8.44771525,33.1045695 8,32.1045695 8,31 L8,31 L8,22 C8,20.8954305 8.44771525,19.8954305 9.17157288,19.1715729 C9.8954305,18.4477153 10.8954305,18 12,18 L12,18 Z" id="Rectangle-Copy-3" stroke="#4A4A4A" stroke-width="2"></path>
    </g>
</svg>