<?xml version="1.0" encoding="UTF-8"?>
<svg width="45px" height="45px" viewBox="0 0 45 45" version="1.1" xmlns="http://www.w3.org/2000/svg" xmlns:xlink="http://www.w3.org/1999/xlink">
    <title>tabicon/ folder-black</title>
    <g id="tabicon/-folder-black" stroke="none" stroke-width="1" fill="none" fill-rule="evenodd">
        <path d="M17.4648162,11.25 C18.0499343,11.25 18.5963391,11.542427 18.9209043,12.0292747 L18.9209043,12.0292747 L20.0303046,13.6933752 C20.2621369,14.0411236 20.652426,14.25 21.0703675,14.25 L21.0703675,14.25 L34,14.25 C35.0355339,14.25 35.9730339,14.669733 36.6516504,15.3483496 C37.330267,16.0269661 37.75,16.9644661 37.75,18 L37.75,18 L37.75,31 C37.75,32.0355339 37.330267,32.9730339 36.6516504,33.6516504 C35.9730339,34.330267 35.0355339,34.75 34,34.75 L34,34.75 L12,34.75 C10.9644661,34.75 10.0269661,34.330267 9.34834957,33.6516504 C8.66973305,32.9730339 8.25,32.0355339 8.25,31 L8.25,31 L8.25,15 C8.25,13.9644661 8.66973305,13.0269661 9.34834957,12.3483496 C10.0269661,11.669733 10.9644661,11.25 12,11.25 L12,11.25 Z" id="Rectangle-Copy-3" stroke="#4A4A4A" stroke-width="1.5"></path>
        <path d="M34,18.25 C35.0355339,18.25 35.9730339,18.669733 36.6516504,19.3483496 C37.330267,20.0269661 37.75,20.9644661 37.75,22 L37.75,22 L37.75,31 C37.75,32.0355339 37.330267,32.9730339 36.6516504,33.6516504 C35.9730339,34.330267 35.0355339,34.75 34,34.75 L34,34.75 L12,34.75 C10.9644661,34.75 10.0269661,34.330267 9.34834957,33.6516504 C8.66973305,32.9730339 8.25,32.0355339 8.25,31 L8.25,31 L8.25,22 C8.25,20.9644661 8.66973305,20.0269661 9.34834957,19.3483496 C10.0269661,18.669733 10.9644661,18.25 12,18.25 L12,18.25 Z" id="Rectangle-Copy-3" stroke="#4A4A4A" stroke-width="1.5"></path>
    </g>
</svg>