<?xml version="1.0" encoding="UTF-8"?>
<svg width="45px" height="45px" viewBox="0 0 45 45" version="1.1" xmlns="http://www.w3.org/2000/svg" xmlns:xlink="http://www.w3.org/1999/xlink">
    <title>tabicon/ invitation</title>
    <g id="tabicon/-invitation" stroke="none" stroke-width="1" fill="none" fill-rule="evenodd">
        <path d="M34,12.25 C35.0355339,12.25 35.9730339,12.669733 36.6516504,13.3483496 C37.2780657,13.9747648 37.6838938,14.8217672 37.7426223,15.7628441 L37.75,16 L37.75,30 C37.75,31.0355339 37.330267,31.9730339 36.6516504,32.6516504 C36.0252352,33.2780657 35.1782328,33.6838938 34.2371559,33.7426223 L34,33.75 L12,33.75 C10.9644661,33.75 10.0269661,33.330267 9.34834957,32.6516504 C8.72193432,32.0252352 8.31610617,31.1782328 8.25737767,30.2371559 L8.25,30 L8.25,16 C8.25,14.9644661 8.66973305,14.0269661 9.34834957,13.3483496 C9.97476482,12.7219343 10.8217672,12.3161062 11.7628441,12.2573777 L12,12.25 L34,12.25 Z M15,15.75 C14.2406085,15.75 13.5531085,16.0578042 13.0554564,16.5554564 C12.5578042,17.0531085 12.25,17.7406085 12.25,18.5 C12.25,19.2593915 12.5578042,19.9468915 13.0554564,20.4445436 C13.5531085,20.9421958 14.2406085,21.25 15,21.25 C15.7593915,21.25 16.4468915,20.9421958 16.9445436,20.4445436 C17.4421958,19.9468915 17.75,19.2593915 17.75,18.5 C17.75,17.7406085 17.4421958,17.0531085 16.9445436,16.5554564 C16.4468915,16.0578042 15.7593915,15.75 15,15.75 Z" id="Combined-Shape" stroke="#E5E5EA" stroke-width="1.5"></path>
    </g>
</svg>