<?xml version="1.0" encoding="UTF-8"?>
<svg width="45px" height="45px" viewBox="0 0 45 45" version="1.1" xmlns="http://www.w3.org/2000/svg" xmlns:xlink="http://www.w3.org/1999/xlink">
    <title>tabicon/ invitation</title>
    <g id="tabicon/-invitation" stroke="none" stroke-width="1" fill="none" fill-rule="evenodd">
        <path d="M35,12 C35.8284271,12 36.5784271,12.3357864 37.1213203,12.8786797 C37.6642136,13.4215729 38,14.1715729 38,15 L38,15 L38,31 C38,31.8284271 37.6642136,32.5784271 37.1213203,33.1213203 C36.5784271,33.6642136 35.8284271,34 35,34 L35,34 L11,34 C10.1715729,34 9.42157288,33.6642136 8.87867966,33.1213203 C8.33578644,32.5784271 8,31.8284271 8,31 L8,31 L8,15 C8,14.1715729 8.33578644,13.4215729 8.87867966,12.8786797 C9.42157288,12.3357864 10.1715729,12 11,12 L11,12 Z" id="Rectangle" stroke="#E5E5EA" stroke-width="2"></path>
        <path d="M32.1723651,12 L8,28.9206556 L8,15 C8,14.1715729 8.33578644,13.4215729 8.87867966,12.8786797 C9.42157288,12.3357864 10.1715729,12 11,12 L11,12 L32.1723651,12 Z" id="Rectangle" stroke="#E5E5EA" stroke-width="2" fill="#E5E5EA"></path>
    </g>
</svg>