<?xml version="1.0" encoding="UTF-8"?>
<svg width="45px" height="45px" viewBox="0 0 45 45" version="1.1" xmlns="http://www.w3.org/2000/svg" xmlns:xlink="http://www.w3.org/1999/xlink">
    <title>tabicon/ key-black</title>
    <g id="tabicon/-key-black" stroke="none" stroke-width="1" fill="none" fill-rule="evenodd">
        <path d="M12.4463519,18 L12.2145923,21.6689189 L15.4012876,20.2905405 L16,22.1554054 L12.639485,23.0878378 L14.9570815,25.7837838 L13.4892704,27 L11.5,23.9391892 L9.51072961,27 L8.04291845,25.7837838 L10.360515,23.0878378 L7,22.1554054 L7.59871245,20.2905405 L10.7854077,21.6689189 L10.5536481,18 L12.4463519,18 Z M23.4463519,18 L23.2145923,21.6689189 L26.4012876,20.2905405 L27,22.1554054 L23.639485,23.0878378 L25.9570815,25.7837838 L24.4892704,27 L22.5,23.9391892 L20.5107296,27 L19.0429185,25.7837838 L21.360515,23.0878378 L18,22.1554054 L18.5987124,20.2905405 L21.7854077,21.6689189 L21.5536481,18 L23.4463519,18 Z M34.4463519,18 L34.2145923,21.6689189 L37.4012876,20.2905405 L38,22.1554054 L34.639485,23.0878378 L36.9570815,25.7837838 L35.4892704,27 L33.5,23.9391892 L31.5107296,27 L30.0429185,25.7837838 L32.360515,23.0878378 L29,22.1554054 L29.5987124,20.2905405 L32.7854077,21.6689189 L32.5536481,18 L34.4463519,18 Z" id="Combined-Shape" fill="#4A4A4A" fill-rule="nonzero"></path>
    </g>
</svg>