<?xml version="1.0" encoding="UTF-8"?>
<svg width="45px" height="45px" viewBox="0 0 45 45" version="1.1" xmlns="http://www.w3.org/2000/svg" xmlns:xlink="http://www.w3.org/1999/xlink">
    <title>tabicon/ others</title>
    <g id="tabicon/-others" stroke="none" stroke-width="1" fill="none" fill-rule="evenodd">
        <path d="M36,26 L36,37 L25,37 L25,26 L36,26 Z" id="Rectangle" stroke="#E5E5EA" stroke-width="2"></path>
        <g id="Group" transform="translate(25.000000, 9.000000)" stroke="#E5E5EA" stroke-linecap="square" stroke-linejoin="round" stroke-width="2">
            <line x1="0.423076923" y1="0.423076923" x2="10.5769231" y2="10.5769231" id="Line"></line>
            <line x1="0.423076923" y1="0.423076923" x2="10.5769231" y2="10.5769231" id="Line" transform="translate(5.500000, 5.500000) scale(-1, 1) translate(-5.500000, -5.500000) "></line>
        </g>
        <polygon id="Triangle" stroke="#E5E5EA" stroke-width="2" points="13.5 26 19 37 8 37"></polygon>
        <path d="M14,8 C15.6568542,8 17.1568542,8.67157288 18.2426407,9.75735931 C19.3284271,10.8431458 20,12.3431458 20,14 C20,15.6568542 19.3284271,17.1568542 18.2426407,18.2426407 C17.1568542,19.3284271 15.6568542,20 14,20 C12.3431458,20 10.8431458,19.3284271 9.75735931,18.2426407 C8.67157288,17.1568542 8,15.6568542 8,14 C8,12.3431458 8.67157288,10.8431458 9.75735931,9.75735931 C10.8431458,8.67157288 12.3431458,8 14,8 Z" id="Rectangle-Copy" stroke="#E5E5EA" stroke-width="2"></path>
    </g>
</svg>