<?xml version="1.0" encoding="UTF-8"?>
<svg width="45px" height="45px" viewBox="0 0 45 45" version="1.1" xmlns="http://www.w3.org/2000/svg" xmlns:xlink="http://www.w3.org/1999/xlink">
    <title>tabicon/ todo-active-black</title>
    <g id="tabicon/-todo-active-black" stroke="none" stroke-width="1" fill="none" fill-rule="evenodd">
        <rect id="Rectangle" fill="#4A4A4A" x="18" y="13" width="20" height="2"></rect>
        <rect id="Rectangle-Copy" fill="#4A4A4A" x="18" y="22" width="20" height="2"></rect>
        <rect id="Rectangle-Copy-2" fill="#4A4A4A" x="18" y="31" width="20" height="2"></rect>
        <path d="M10.5,10 C12.4329966,10 14,11.5670034 14,13.5 C14,15.4329966 12.4329966,17 10.5,17 C8.56700338,17 7,15.4329966 7,13.5 C7,11.5670034 8.56700338,10 10.5,10 Z M10.5,11 C9.11928813,11 8,12.1192881 8,13.5 C8,14.8807119 9.11928813,16 10.5,16 C11.8807119,16 13,14.8807119 13,13.5 C13,12.1192881 11.8807119,11 10.5,11 Z M10.5,12 C11.3284271,12 12,12.6715729 12,13.5 C12,14.3284271 11.3284271,15 10.5,15 C9.67157288,15 9,14.3284271 9,13.5 C9,12.6715729 9.67157288,12 10.5,12 Z" id="Combined-Shape" fill="#4A4A4A"></path>
        <path d="M10.5,19 C12.4329966,19 14,20.5670034 14,22.5 C14,24.4329966 12.4329966,26 10.5,26 C8.56700338,26 7,24.4329966 7,22.5 C7,20.5670034 8.56700338,19 10.5,19 Z M10.5,20 C9.11928813,20 8,21.1192881 8,22.5 C8,23.8807119 9.11928813,25 10.5,25 C11.8807119,25 13,23.8807119 13,22.5 C13,21.1192881 11.8807119,20 10.5,20 Z M10.5,21 C11.3284271,21 12,21.6715729 12,22.5 C12,23.3284271 11.3284271,24 10.5,24 C9.67157288,24 9,23.3284271 9,22.5 C9,21.6715729 9.67157288,21 10.5,21 Z" id="Combined-Shape-Copy-2" fill="#4A4A4A"></path>
        <path d="M10.5,28 C12.4329966,28 14,29.5670034 14,31.5 C14,33.4329966 12.4329966,35 10.5,35 C8.56700338,35 7,33.4329966 7,31.5 C7,29.5670034 8.56700338,28 10.5,28 Z M10.5,29 C9.11928813,29 8,30.1192881 8,31.5 C8,32.8807119 9.11928813,34 10.5,34 C11.8807119,34 13,32.8807119 13,31.5 C13,30.1192881 11.8807119,29 10.5,29 Z M10.5,30 C11.3284271,30 12,30.6715729 12,31.5 C12,32.3284271 11.3284271,33 10.5,33 C9.67157288,33 9,32.3284271 9,31.5 C9,30.6715729 9.67157288,30 10.5,30 Z" id="Combined-Shape-Copy-3" fill="#4A4A4A"></path>
    </g>
</svg>