<?xml version="1.0" encoding="UTF-8"?>
<svg width="45px" height="45px" viewBox="0 0 45 45" version="1.1" xmlns="http://www.w3.org/2000/svg" xmlns:xlink="http://www.w3.org/1999/xlink">
    <title>tabicon/ year</title>
    <g id="tabicon/-year" stroke="none" stroke-width="1" fill="none" fill-rule="evenodd">
        <path d="M11,10.1759237 C11.0122951,9.54559556 11.1290984,8.97436072 11.3504098,8.46221914 C11.5717213,7.95007756 11.8790984,7.51344403 12.272541,7.15231856 C12.6659836,6.79119308 13.142418,6.50885862 13.7018443,6.30531517 C14.2612705,6.10177172 14.8790984,6 15.5553279,6 C16.1946721,6 16.7786885,6.09848877 17.307377,6.2954663 C17.8360656,6.49244383 18.2879098,6.77477829 18.6629098,7.14246968 C19.0379098,7.51016107 19.3268443,7.9467946 19.5297131,8.45237026 C19.732582,8.95794593 19.8340164,9.52589781 19.8340164,10.1562259 C19.8340164,10.6421038 19.7756148,11.1148499 19.6588115,11.5744641 C19.5420082,12.0340784 19.357582,12.4904096 19.1055328,12.943458 C18.8534836,13.3965063 18.5307377,13.8495546 18.1372951,14.3026029 C17.7438525,14.7556513 17.2766393,15.2251144 16.7356557,15.7109923 L14.817623,17.4049991 C14.522541,17.6282403 14.2581967,17.80552 14.0245902,17.9368384 C13.8893443,18.0156294 13.7602459,18.0812886 13.6372951,18.1338159 L13.6372951,18.2126069 C13.8094262,18.1994751 13.9938525,18.1863433 14.1905738,18.1732114 C14.3627049,18.1732114 14.5502049,18.1699285 14.7530738,18.1633625 C14.9559426,18.1567966 15.1618852,18.1535137 15.3709016,18.1535137 L20,18.1535137 L20,20.3793598 L11.0922131,20.3793598 L11.0922131,17.7792564 L15.3340164,14.0957765 C16.1086066,13.4129211 16.664959,12.7727441 17.0030738,12.1752456 C17.3411885,11.5777471 17.5102459,10.944136 17.5102459,10.2744124 C17.5102459,9.63095249 17.3319672,9.11881091 16.9754098,8.73798768 C16.6188525,8.35716446 16.1331967,8.16675284 15.5184426,8.16675284 C14.8545082,8.16675284 14.3258197,8.35059854 13.932377,8.71828993 C13.5389344,9.08598132 13.3422131,9.57185923 13.3422131,10.1759237 L11,10.1759237 Z" id="2" fill="#E5E5EA" fill-rule="nonzero"></path>
        <path d="M25.5263158,10.2749448 C25.5263158,9.62722589 25.6330104,9.04104028 25.8463995,8.51638796 C26.0597886,7.99173564 26.3610438,7.541571 26.7501652,7.16589404 C27.1392865,6.79021707 27.6131359,6.50198215 28.1717133,6.30118929 C28.7302907,6.10039643 29.3484915,6 30.0263158,6 C30.7041401,6 31.3223409,6.10039643 31.8809183,6.30118929 C32.4394957,6.50198215 32.9133451,6.79021707 33.3024664,7.16589404 C33.6915878,7.541571 33.992843,7.99173564 34.2062321,8.51638796 C34.4196212,9.04104028 34.5263158,9.62722589 34.5263158,10.2749448 L34.5263158,16.0849834 C34.5263158,16.7197479 34.4196212,17.302695 34.2062321,17.8338245 C33.992843,18.364954 33.6884497,18.8183572 33.2930522,19.1940342 C32.8976547,19.5697111 32.4238053,19.8611846 31.8715041,20.0684547 C31.3192028,20.2757247 30.7041401,20.3793598 30.0263158,20.3793598 C29.3484915,20.3793598 28.7302907,20.2789633 28.1717133,20.0781705 C27.6131359,19.8773776 27.1392865,19.5891427 26.7501652,19.2134657 C26.3610438,18.8377888 26.0597886,18.3843855 25.8463995,17.853256 C25.6330104,17.3221265 25.5263158,16.7327023 25.5263158,16.0849834 L25.5263158,10.2749448 Z M27.8233869,16.0849834 C27.8233869,16.7456567 28.0242237,17.270309 28.4258974,17.6589404 C28.827571,18.0475717 29.3610438,18.2418874 30.0263158,18.2418874 C30.6915878,18.2418874 31.2250606,18.0475717 31.6267342,17.6589404 C32.0284078,17.270309 32.2292447,16.7456567 32.2292447,16.0849834 L32.2292447,10.2749448 C32.2292447,9.61427151 32.0284078,9.08961919 31.6267342,8.70098785 C31.2250606,8.3123565 30.6915878,8.11804083 30.0263158,8.11804083 C29.3610438,8.11804083 28.827571,8.3123565 28.4258974,8.70098785 C28.0242237,9.08961919 27.8233869,9.61427151 27.8233869,10.2749448 L27.8233869,16.0849834 Z M29.1413786,11.8489017 C29.1413786,11.5379967 29.2229685,11.2886249 29.3861484,11.1007864 C29.5493283,10.9129479 29.7627175,10.8190287 30.0263158,10.8190287 C30.2899141,10.8190287 30.5033032,10.9129479 30.6664832,11.1007864 C30.8296631,11.2886249 30.911253,11.5379967 30.911253,11.8489017 L30.911253,14.7247737 C30.911253,15.0227244 30.8296631,15.265619 30.6664832,15.4534575 C30.5033032,15.641296 30.2899141,15.7352152 30.0263158,15.7352152 C29.7627175,15.7352152 29.5493283,15.641296 29.3861484,15.4534575 C29.2229685,15.265619 29.1413786,15.0227244 29.1413786,14.7247737 L29.1413786,11.8489017 Z" id="0" fill="#E5E5EA" fill-rule="nonzero"></path>
        <path d="M11,28.6374621 C11.0122951,28.007134 11.1290984,27.4358992 11.3504098,26.9237576 C11.5717213,26.411616 11.8790984,25.9749825 12.272541,25.613857 C12.6659836,25.2527315 13.142418,24.9703971 13.7018443,24.7668536 C14.2612705,24.5633102 14.8790984,24.4615385 15.5553279,24.4615385 C16.1946721,24.4615385 16.7786885,24.5600272 17.307377,24.7570048 C17.8360656,24.9539823 18.2879098,25.2363168 18.6629098,25.6040081 C19.0379098,25.9716995 19.3268443,26.4083331 19.5297131,26.9139087 C19.732582,27.4194844 19.8340164,27.9874363 19.8340164,28.6177644 C19.8340164,29.1036423 19.7756148,29.5763884 19.6588115,30.0360026 C19.5420082,30.4956168 19.357582,30.9519481 19.1055328,31.4049964 C18.8534836,31.8580448 18.5307377,32.3110931 18.1372951,32.7641414 C17.7438525,33.2171897 17.2766393,33.6866528 16.7356557,34.1725307 L14.817623,35.8665375 C14.522541,36.0897787 14.2581967,36.2670585 14.0245902,36.3983768 C13.8893443,36.4771679 13.7602459,36.542827 13.6372951,36.5953544 L13.6372951,36.6741454 C13.8094262,36.6610136 13.9938525,36.6478817 14.1905738,36.6347499 C14.3627049,36.6347499 14.5502049,36.6314669 14.7530738,36.624901 C14.9559426,36.6183351 15.1618852,36.6150521 15.3709016,36.6150521 L20,36.6150521 L20,38.8408982 L11.0922131,38.8408982 L11.0922131,36.2407948 L15.3340164,32.557315 C16.1086066,31.8744595 16.664959,31.2342826 17.0030738,30.6367841 C17.3411885,30.0392856 17.5102459,29.4056745 17.5102459,28.7359509 C17.5102459,28.092491 17.3319672,27.5803494 16.9754098,27.1995261 C16.6188525,26.8187029 16.1331967,26.6282913 15.5184426,26.6282913 C14.8545082,26.6282913 14.3258197,26.812137 13.932377,27.1798284 C13.5389344,27.5475198 13.3422131,28.0333977 13.3422131,28.6374621 L11,28.6374621 Z" id="2" fill="#E5E5EA" fill-rule="nonzero"></path>
        <path d="M25.5263158,28.6374621 C25.5386109,28.007134 25.6554142,27.4358992 25.8767256,26.9237576 C26.0980371,26.411616 26.4054142,25.9749825 26.7988568,25.613857 C27.1922994,25.2527315 27.6687338,24.9703971 28.2281601,24.7668536 C28.7875863,24.5633102 29.4054142,24.4615385 30.0816437,24.4615385 C30.7209879,24.4615385 31.3050043,24.5600272 31.8336928,24.7570048 C32.3623814,24.9539823 32.8142256,25.2363168 33.1892256,25.6040081 C33.5642256,25.9716995 33.8531601,26.4083331 34.0560289,26.9139087 C34.2588978,27.4194844 34.3603322,27.9874363 34.3603322,28.6177644 C34.3603322,29.1036423 34.3019305,29.5763884 34.1851273,30.0360026 C34.068324,30.4956168 33.8838978,30.9519481 33.6318486,31.4049964 C33.3797994,31.8580448 33.0570535,32.3110931 32.6636109,32.7641414 C32.2701682,33.2171897 31.8029551,33.6866528 31.2619715,34.1725307 L29.3439387,35.8665375 C29.0488568,36.0897787 28.7845125,36.2670585 28.550906,36.3983768 C28.4156601,36.4771679 28.2865617,36.542827 28.1636109,36.5953544 L28.1636109,36.6741454 C28.335742,36.6610136 28.5201682,36.6478817 28.7168896,36.6347499 C28.8890207,36.6347499 29.0765207,36.6314669 29.2793896,36.624901 C29.4822584,36.6183351 29.688201,36.6150521 29.8972174,36.6150521 L34.5263158,36.6150521 L34.5263158,38.8408982 L25.6185289,38.8408982 L25.6185289,36.2407948 L29.8603322,32.557315 C30.6349223,31.8744595 31.1912748,31.2342826 31.5293896,30.6367841 C31.8675043,30.0392856 32.0365617,29.4056745 32.0365617,28.7359509 C32.0365617,28.092491 31.858283,27.5803494 31.5017256,27.1995261 C31.1451682,26.8187029 30.6595125,26.6282913 30.0447584,26.6282913 C29.380824,26.6282913 28.8521355,26.812137 28.4586928,27.1798284 C28.0652502,27.5475198 27.8685289,28.0333977 27.8685289,28.6374621 L25.5263158,28.6374621 Z" id="2" fill="#E5E5EA" fill-rule="nonzero"></path>
    </g>
</svg>