<?xml version="1.0" encoding="UTF-8"?>
<svg width="45px" height="45px" viewBox="0 0 45 45" version="1.1" xmlns="http://www.w3.org/2000/svg" xmlns:xlink="http://www.w3.org/1999/xlink">
    <title>tabicon/ year</title>
    <g id="tabicon/-year" stroke="none" stroke-width="1" fill="none" fill-rule="evenodd">
        <path d="M15.9159836,24.7307692 C16.4655953,24.7307692 16.9676445,24.8148051 17.4221311,24.9828767 C17.8766178,25.1509484 18.2650453,25.3918511 18.5874137,25.7055848 C18.9097821,26.0193186 19.1581644,26.3918774 19.3325604,26.8232613 C19.5069564,27.2546452 19.5941544,27.7392518 19.5941544,28.2770811 C19.5941544,28.6916579 19.5439495,29.0950299 19.4435397,29.487197 C19.3431299,29.8793642 19.184588,30.2687302 18.9679142,30.655295 C18.7512403,31.0418599 18.4737921,31.4284247 18.1355695,31.8149895 C17.7973469,32.2015543 17.3957075,32.602125 16.9306514,33.0167018 L15.2818162,34.462118 C15.0281493,34.6525992 14.800906,34.8038637 14.6000863,34.9159115 C14.4838223,34.9831401 14.372843,35.039164 14.2671484,35.0839831 L14.2671484,35.1512118 C14.4151208,35.140007 14.5736626,35.1288022 14.7427739,35.1175975 C14.8907463,35.1175975 15.0519305,35.1147963 15.2263266,35.1091939 C15.4007226,35.1035915 15.577761,35.1007903 15.7574418,35.1007903 L19.7368421,35.1007903 L19.7368421,37 L12.0792709,37 L12.0792709,34.7814542 L15.7257334,31.6385142 C16.3916091,31.0558658 16.869877,30.5096329 17.1605371,29.9998156 C17.4511972,29.4899982 17.5965272,28.9493678 17.5965272,28.3779241 C17.5965272,27.8288901 17.4432701,27.3919038 17.1367558,27.0669652 C16.8302416,26.7420267 16.4127481,26.5795574 15.8842752,26.5795574 C15.3135246,26.5795574 14.859038,26.7364243 14.5208154,27.0501581 C14.1825928,27.3638918 14.0134814,27.7784686 14.0134814,28.2938883 L12,28.2938883 C12.0105695,27.756059 12.1109793,27.2686512 12.3012295,26.8316649 C12.4914797,26.3946786 12.7557161,26.0221198 13.0939387,25.7139884 C13.4321613,25.405857 13.8417278,25.1649543 14.3226381,24.9912803 C14.8035483,24.8176063 15.3346635,24.7307692 15.9159836,24.7307692 Z M29.1791415,24.7307692 C29.7287532,24.7307692 30.2308024,24.8148051 30.685289,24.9828767 C31.1397757,25.1509484 31.5282032,25.3918511 31.8505716,25.7055848 C32.17294,26.0193186 32.4213223,26.3918774 32.5957183,26.8232613 C32.7701143,27.2546452 32.8573123,27.7392518 32.8573123,28.2770811 C32.8573123,28.6916579 32.8071074,29.0950299 32.7066976,29.487197 C32.6062877,29.8793642 32.4477459,30.2687302 32.231072,30.655295 C32.0143982,31.0418599 31.73695,31.4284247 31.3987274,31.8149895 C31.0605047,32.2015543 30.6588654,32.602125 30.1938093,33.0167018 L28.5449741,34.462118 C28.2913072,34.6525992 28.0640638,34.8038637 27.8632442,34.9159115 C27.7469802,34.9831401 27.6360009,35.039164 27.5303063,35.0839831 L27.5303063,35.1512118 C27.6782787,35.140007 27.8368205,35.1288022 28.0059318,35.1175975 C28.1539042,35.1175975 28.3150884,35.1147963 28.4894845,35.1091939 C28.6638805,35.1035915 28.8409189,35.1007903 29.0205997,35.1007903 L33,35.1007903 L33,37 L25.3424288,37 L25.3424288,34.7814542 L28.9888913,31.6385142 C29.654767,31.0558658 30.1330349,30.5096329 30.423695,29.9998156 C30.714355,29.4899982 30.8596851,28.9493678 30.8596851,28.3779241 C30.8596851,27.8288901 30.706428,27.3919038 30.3999137,27.0669652 C30.0933995,26.7420267 29.675906,26.5795574 29.1474331,26.5795574 C28.5766825,26.5795574 28.1221959,26.7364243 27.7839733,27.0501581 C27.4457506,27.3638918 27.2766393,27.7784686 27.2766393,28.2938883 L25.2631579,28.2938883 C25.2737274,27.756059 25.3741372,27.2686512 25.5643874,26.8316649 C25.7546376,26.3946786 26.018874,26.0221198 26.3570966,25.7139884 C26.6953192,25.405857 27.1048857,25.1649543 27.5857959,24.9912803 C28.0667062,24.8176063 28.5978214,24.7307692 29.1791415,24.7307692 Z M15.9159836,8 C16.4655953,8 16.9676445,8.08403583 17.4221311,8.25210748 C17.8766178,8.42017914 18.2650453,8.66108184 18.5874137,8.9748156 C18.9097821,9.28854935 19.1581644,9.66110818 19.3325604,10.0924921 C19.5069564,10.523876 19.5941544,11.0084826 19.5941544,11.5463119 C19.5941544,11.9608887 19.5439495,12.3642606 19.4435397,12.7564278 C19.3431299,13.148595 19.184588,13.537961 18.9679142,13.9245258 C18.7512403,14.3110906 18.4737921,14.6976554 18.1355695,15.0842202 C17.7973469,15.470785 17.3957075,15.8713558 16.9306514,16.2859326 L15.2818162,17.7313488 C15.0281493,17.92183 14.800906,18.0730945 14.6000863,18.1851423 C14.4838223,18.2523709 14.372843,18.3083948 14.2671484,18.3532139 L14.2671484,18.4204426 C14.4151208,18.4092378 14.5736626,18.398033 14.7427739,18.3868282 C14.8907463,18.3868282 15.0519305,18.384027 15.2263266,18.3784247 C15.4007226,18.3728223 15.577761,18.3700211 15.7574418,18.3700211 L19.7368421,18.3700211 L19.7368421,20.2692308 L12.0792709,20.2692308 L12.0792709,18.0506849 L15.7257334,14.907745 C16.3916091,14.3250966 16.869877,13.7788637 17.1605371,13.2690464 C17.4511972,12.759229 17.5965272,12.2185985 17.5965272,11.6471549 C17.5965272,11.0981208 17.4432701,10.6611345 17.1367558,10.336196 C16.8302416,10.0112575 16.4127481,9.8487882 15.8842752,9.8487882 C15.3135246,9.8487882 14.859038,10.0056551 14.5208154,10.3193888 C14.1825928,10.6331226 14.0134814,11.0476993 14.0134814,11.5631191 L12,11.5631191 C12.0105695,11.0252898 12.1109793,10.537882 12.3012295,10.1008957 C12.4914797,9.66390938 12.7557161,9.29135054 13.0939387,8.98321918 C13.4321613,8.67508781 13.8417278,8.43418511 14.3226381,8.26051106 C14.8035483,8.08683702 15.3346635,8 15.9159836,8 Z M29.1315789,8 C29.71427,8 30.2457058,8.08566355 30.7258864,8.25699064 C31.2060669,8.42831774 31.6134111,8.67425502 31.947919,8.99480249 C32.2824268,9.31534997 32.5414006,9.69945426 32.7248403,10.1471154 C32.9082801,10.5947765 33,11.0949411 33,11.6476091 L33,16.6050416 C33,17.1466563 32.9082801,17.6440575 32.7248403,18.0972453 C32.5414006,18.5504331 32.2797291,18.9373008 31.939826,19.2578482 C31.5999229,19.5783957 31.1925787,19.8270963 30.7177934,20.0039501 C30.2430081,20.1808039 29.71427,20.2692308 29.1315789,20.2692308 C28.5488879,20.2692308 28.0174521,20.1835672 27.5372715,20.0122401 C27.0570909,19.840913 26.6497468,19.5949757 26.3152389,19.2744283 C25.9807311,18.9538808 25.7217573,18.5670132 25.5383176,18.1138254 C25.3548778,17.6606376 25.2631579,17.1577096 25.2631579,16.6050416 L25.2631579,11.6476091 C25.2631579,11.0949411 25.3548778,10.5947765 25.5383176,10.1471154 C25.7217573,9.69945426 25.9807311,9.31534997 26.3152389,8.99480249 C26.6497468,8.67425502 27.0570909,8.42831774 27.5372715,8.25699064 C28.0174521,8.08566355 28.5488879,8 29.1315789,8 Z M29.1315789,9.80722453 C28.5596785,9.80722453 28.1010791,9.97302495 27.7557807,10.3046258 C27.4104823,10.6362266 27.2378331,11.0838877 27.2378331,11.6476091 L27.2378331,16.6050416 C27.2378331,17.168763 27.4104823,17.6164241 27.7557807,17.9480249 C28.1010791,18.2796258 28.5596785,18.4454262 29.1315789,18.4454262 C29.7034794,18.4454262 30.1620788,18.2796258 30.5073772,17.9480249 C30.8526756,17.6164241 31.0253248,17.168763 31.0253248,16.6050416 L31.0253248,11.6476091 C31.0253248,11.0838877 30.8526756,10.6362266 30.5073772,10.3046258 C30.1620788,9.97302495 29.7034794,9.80722453 29.1315789,9.80722453 Z M29.1315789,12.1118503 C29.358181,12.1118503 29.5416208,12.1919872 29.6818983,12.3522609 C29.8221757,12.5125347 29.8923145,12.7253119 29.8923145,12.9905925 L29.8923145,15.4444387 C29.8923145,15.698666 29.8221757,15.9059165 29.6818983,16.0661902 C29.5416208,16.226464 29.358181,16.3066008 29.1315789,16.3066008 C28.9049769,16.3066008 28.7215371,16.226464 28.5812596,16.0661902 C28.4409822,15.9059165 28.3708434,15.698666 28.3708434,15.4444387 L28.3708434,12.9905925 C28.3708434,12.7253119 28.4409822,12.5125347 28.5812596,12.3522609 C28.7215371,12.1919872 28.9049769,12.1118503 29.1315789,12.1118503 Z" id="Combined-Shape" fill="#E5E5EA" fill-rule="nonzero"></path>
    </g>
</svg>