<?xml version="1.0" encoding="UTF-8"?>
<svg width="45px" height="45px" viewBox="0 0 45 45" version="1.1" xmlns="http://www.w3.org/2000/svg" xmlns:xlink="http://www.w3.org/1999/xlink">
    <title>tabicon/ year-black</title>
    <g id="tabicon/-year-black" stroke="none" stroke-width="1" fill="none" fill-rule="evenodd">
        <g id="Group" transform="translate(11.000000, 6.000000)" fill="#4A4A4A" fill-rule="nonzero">
            <path d="M0,4.17592366 C0.012295082,3.54559556 0.129098361,2.97436072 0.350409836,2.46221914 C0.571721311,1.95007756 0.879098361,1.51344403 1.27254098,1.15231856 C1.66598361,0.791193083 2.14241803,0.508858622 2.70184426,0.305315173 C3.26127049,0.101771724 3.87909836,0 4.55532787,0 C5.19467213,0 5.77868852,0.0984887656 6.30737705,0.295466297 C6.83606557,0.492443828 7.28790984,0.774778289 7.66290984,1.14246968 C8.03790984,1.51016107 8.32684426,1.9467946 8.52971311,2.45237026 C8.73258197,2.95794593 8.83401639,3.52589781 8.83401639,4.15622591 C8.83401639,4.64210382 8.77561475,5.11484989 8.65881148,5.57446413 C8.5420082,6.03407837 8.35758197,6.49040965 8.10553279,6.94345797 C7.85348361,7.39650629 7.5307377,7.84955461 7.13729508,8.30260294 C6.74385246,8.75565126 6.27663934,9.22511437 5.73565574,9.71099228 L3.81762295,11.4049991 C3.52254098,11.6282403 3.25819672,11.80552 3.02459016,11.9368384 C2.88934426,12.0156294 2.7602459,12.0812886 2.63729508,12.1338159 L2.63729508,12.2126069 C2.80942623,12.1994751 2.99385246,12.1863433 3.19057377,12.1732114 C3.36270492,12.1732114 3.55020492,12.1699285 3.75307377,12.1633625 C3.95594262,12.1567966 4.16188525,12.1535137 4.37090164,12.1535137 L9,12.1535137 L9,14.3793598 L0.0922131148,14.3793598 L0.0922131148,11.7792564 L4.33401639,8.09577653 C5.10860656,7.41292109 5.66495902,6.77274411 6.00307377,6.1752456 C6.34118852,5.57774709 6.5102459,4.94413603 6.5102459,4.27441242 C6.5102459,3.63095249 6.33196721,3.11881091 5.97540984,2.73798768 C5.61885246,2.35716446 5.13319672,2.16675284 4.51844262,2.16675284 C3.8545082,2.16675284 3.32581967,2.35059854 2.93237705,2.71828993 C2.53893443,3.08598132 2.34221311,3.57185923 2.34221311,4.17592366 L0,4.17592366 Z" id="2"></path>
            <path d="M14.5263158,4.2749448 C14.5263158,3.62722589 14.6330104,3.04104028 14.8463995,2.51638796 C15.0597886,1.99173564 15.3610438,1.541571 15.7501652,1.16589404 C16.1392865,0.790217068 16.6131359,0.501982154 17.1717133,0.301189292 C17.7302907,0.100396431 18.3484915,0 19.0263158,0 C19.7041401,0 20.3223409,0.100396431 20.8809183,0.301189292 C21.4394957,0.501982154 21.9133451,0.790217068 22.3024664,1.16589404 C22.6915878,1.541571 22.992843,1.99173564 23.2062321,2.51638796 C23.4196212,3.04104028 23.5263158,3.62722589 23.5263158,4.2749448 L23.5263158,10.0849834 C23.5263158,10.7197479 23.4196212,11.302695 23.2062321,11.8338245 C22.992843,12.364954 22.6884497,12.8183572 22.2930522,13.1940342 C21.8976547,13.5697111 21.4238053,13.8611846 20.8715041,14.0684547 C20.3192028,14.2757247 19.7041401,14.3793598 19.0263158,14.3793598 C18.3484915,14.3793598 17.7302907,14.2789633 17.1717133,14.0781705 C16.6131359,13.8773776 16.1392865,13.5891427 15.7501652,13.2134657 C15.3610438,12.8377888 15.0597886,12.3843855 14.8463995,11.853256 C14.6330104,11.3221265 14.5263158,10.7327023 14.5263158,10.0849834 L14.5263158,4.2749448 Z M16.8233869,10.0849834 C16.8233869,10.7456567 17.0242237,11.270309 17.4258974,11.6589404 C17.827571,12.0475717 18.3610438,12.2418874 19.0263158,12.2418874 C19.6915878,12.2418874 20.2250606,12.0475717 20.6267342,11.6589404 C21.0284078,11.270309 21.2292447,10.7456567 21.2292447,10.0849834 L21.2292447,4.2749448 C21.2292447,3.61427151 21.0284078,3.08961919 20.6267342,2.70098785 C20.2250606,2.3123565 19.6915878,2.11804083 19.0263158,2.11804083 C18.3610438,2.11804083 17.827571,2.3123565 17.4258974,2.70098785 C17.0242237,3.08961919 16.8233869,3.61427151 16.8233869,4.2749448 L16.8233869,10.0849834 Z M18.1413786,5.84890174 C18.1413786,5.53799667 18.2229685,5.28862489 18.3861484,5.10078641 C18.5493283,4.91294792 18.7627175,4.81902868 19.0263158,4.81902868 C19.2899141,4.81902868 19.5033032,4.91294792 19.6664832,5.10078641 C19.8296631,5.28862489 19.911253,5.53799667 19.911253,5.84890174 L19.911253,8.7247737 C19.911253,9.0227244 19.8296631,9.26561899 19.6664832,9.45345747 C19.5033032,9.64129595 19.2899141,9.7352152 19.0263158,9.7352152 C18.7627175,9.7352152 18.5493283,9.64129595 18.3861484,9.45345747 C18.2229685,9.26561899 18.1413786,9.0227244 18.1413786,8.7247737 L18.1413786,5.84890174 Z" id="0"></path>
            <path d="M0,22.6374621 C0.012295082,22.007134 0.129098361,21.4358992 0.350409836,20.9237576 C0.571721311,20.411616 0.879098361,19.9749825 1.27254098,19.613857 C1.66598361,19.2527315 2.14241803,18.9703971 2.70184426,18.7668536 C3.26127049,18.5633102 3.87909836,18.4615385 4.55532787,18.4615385 C5.19467213,18.4615385 5.77868852,18.5600272 6.30737705,18.7570048 C6.83606557,18.9539823 7.28790984,19.2363168 7.66290984,19.6040081 C8.03790984,19.9716995 8.32684426,20.4083331 8.52971311,20.9139087 C8.73258197,21.4194844 8.83401639,21.9874363 8.83401639,22.6177644 C8.83401639,23.1036423 8.77561475,23.5763884 8.65881148,24.0360026 C8.5420082,24.4956168 8.35758197,24.9519481 8.10553279,25.4049964 C7.85348361,25.8580448 7.5307377,26.3110931 7.13729508,26.7641414 C6.74385246,27.2171897 6.27663934,27.6866528 5.73565574,28.1725307 L3.81762295,29.8665375 C3.52254098,30.0897787 3.25819672,30.2670585 3.02459016,30.3983768 C2.88934426,30.4771679 2.7602459,30.542827 2.63729508,30.5953544 L2.63729508,30.6741454 C2.80942623,30.6610136 2.99385246,30.6478817 3.19057377,30.6347499 C3.36270492,30.6347499 3.55020492,30.6314669 3.75307377,30.624901 C3.95594262,30.6183351 4.16188525,30.6150521 4.37090164,30.6150521 L9,30.6150521 L9,32.8408982 L0.0922131148,32.8408982 L0.0922131148,30.2407948 L4.33401639,26.557315 C5.10860656,25.8744595 5.66495902,25.2342826 6.00307377,24.6367841 C6.34118852,24.0392856 6.5102459,23.4056745 6.5102459,22.7359509 C6.5102459,22.092491 6.33196721,21.5803494 5.97540984,21.1995261 C5.61885246,20.8187029 5.13319672,20.6282913 4.51844262,20.6282913 C3.8545082,20.6282913 3.32581967,20.812137 2.93237705,21.1798284 C2.53893443,21.5475198 2.34221311,22.0333977 2.34221311,22.6374621 L0,22.6374621 Z" id="2"></path>
            <path d="M14.5263158,22.6374621 C14.5386109,22.007134 14.6554142,21.4358992 14.8767256,20.9237576 C15.0980371,20.411616 15.4054142,19.9749825 15.7988568,19.613857 C16.1922994,19.2527315 16.6687338,18.9703971 17.2281601,18.7668536 C17.7875863,18.5633102 18.4054142,18.4615385 19.0816437,18.4615385 C19.7209879,18.4615385 20.3050043,18.5600272 20.8336928,18.7570048 C21.3623814,18.9539823 21.8142256,19.2363168 22.1892256,19.6040081 C22.5642256,19.9716995 22.8531601,20.4083331 23.0560289,20.9139087 C23.2588978,21.4194844 23.3603322,21.9874363 23.3603322,22.6177644 C23.3603322,23.1036423 23.3019305,23.5763884 23.1851273,24.0360026 C23.068324,24.4956168 22.8838978,24.9519481 22.6318486,25.4049964 C22.3797994,25.8580448 22.0570535,26.3110931 21.6636109,26.7641414 C21.2701682,27.2171897 20.8029551,27.6866528 20.2619715,28.1725307 L18.3439387,29.8665375 C18.0488568,30.0897787 17.7845125,30.2670585 17.550906,30.3983768 C17.4156601,30.4771679 17.2865617,30.542827 17.1636109,30.5953544 L17.1636109,30.6741454 C17.335742,30.6610136 17.5201682,30.6478817 17.7168896,30.6347499 C17.8890207,30.6347499 18.0765207,30.6314669 18.2793896,30.624901 C18.4822584,30.6183351 18.688201,30.6150521 18.8972174,30.6150521 L23.5263158,30.6150521 L23.5263158,32.8408982 L14.6185289,32.8408982 L14.6185289,30.2407948 L18.8603322,26.557315 C19.6349223,25.8744595 20.1912748,25.2342826 20.5293896,24.6367841 C20.8675043,24.0392856 21.0365617,23.4056745 21.0365617,22.7359509 C21.0365617,22.092491 20.858283,21.5803494 20.5017256,21.1995261 C20.1451682,20.8187029 19.6595125,20.6282913 19.0447584,20.6282913 C18.380824,20.6282913 17.8521355,20.812137 17.4586928,21.1798284 C17.0652502,21.5475198 16.8685289,22.0333977 16.8685289,22.6374621 L14.5263158,22.6374621 Z" id="2"></path>
        </g>
    </g>
</svg>