<?xml version="1.0" encoding="UTF-8"?>
<svg width="100px" height="100px" viewBox="0 0 100 100" version="1.1" xmlns="http://www.w3.org/2000/svg" xmlns:xlink="http://www.w3.org/1999/xlink">
    <title>logo_init</title>
    <g id="logo_init" stroke="none" stroke-width="1" fill="none" fill-rule="evenodd">
        <circle id="Oval" fill="#FFCC00" cx="50" cy="50" r="50"></circle>
        <path d="M57.0811633,16.1176509 C58.7637652,16.4377877 60.4036814,16.8783791 61.9916,17.4301131 L62.8128222,25.0969855 C64.0060905,25.7121738 65.1494422,26.4106087 66.2351996,27.1846126 L73.3848385,24.0174583 C74.6692436,25.1283708 75.8719923,26.3311528 76.9828695,27.6155892 L73.6852526,35.0597245 C74.3072274,36.0436928 74.869579,37.0691018 75.3672313,38.1308751 L83.5695751,39.0080883 C84.1212,40.5956925 84.5617262,42.2352738 84.8818472,43.9175258 L77.9807774,48.9527415 C77.9935551,49.3002477 78,49.6493712 78,50 C78,50.6756567 77.9760685,51.3457238 77.9290069,52.0094001 L84.8820373,57.0811633 C84.5619006,58.7637652 84.1213092,60.4036814 83.5695751,61.9916 L74.8444608,62.9257648 C74.4103634,63.7584351 73.9356334,64.5665513 73.4229005,65.3474836 L76.9822299,73.3848385 C75.8715306,74.6689971 74.6689971,75.8715306 73.3848385,76.9822299 L65.3474836,73.4229005 C64.5665513,73.9356334 63.7584351,74.4103634 62.9257648,74.8444608 L61.9916,83.5695751 C60.4036814,84.1213092 58.7637652,84.5619006 57.0811633,84.8820373 L52.0094001,77.9290069 C51.3457238,77.9760685 50.6756567,78 50,78 C49.6493712,78 49.3002477,77.9935551 48.9527415,77.9807774 L43.9175258,84.8818472 C42.2352738,84.5617262 40.5956925,84.1212 39.0080883,83.5695751 L38.1308751,75.3672313 C37.0691018,74.869579 36.0436928,74.3072274 35.0597245,73.6852526 L27.6155892,76.9828695 C26.3311528,75.8719923 25.1283708,74.6692436 24.0174583,73.3848385 L27.1846126,66.2351996 C26.4106087,65.1494422 25.7121738,64.0060905 25.0969855,62.8128222 L17.4301131,61.9916 C16.8783791,60.4036814 16.4377877,58.7637652 16.1176509,57.0811633 L22.1282154,52.6969973 C22.0433906,51.809437 22,50.9097857 22,50 C22,49.4118953 22.0181312,48.8280254 22.0538652,48.2489187 L16.1176509,43.9185249 C16.4377206,42.2362752 16.8781946,40.5966933 17.4297666,39.0090855 L24.5799142,38.2443055 C25.2442164,36.8102487 26.0262986,35.4418781 26.9137445,34.1516099 L24.0176872,27.614585 C25.1282465,26.3306141 26.3306141,25.1282465 27.614585,24.0176872 L34.1516099,26.9137445 C35.4418781,26.0262986 36.8102487,25.2442164 38.2443055,24.5799142 L39.0090855,17.4297666 C40.5966933,16.8781946 42.2362752,16.4377206 43.9185249,16.1176509 L48.2489187,22.0538652 C48.8280254,22.0181312 49.4118953,22 50,22 C50.9097857,22 51.809437,22.0433906 52.6969973,22.1282154 L57.0811633,16.1176509 Z M50,37 C42.8202983,37 37,42.8202983 37,50 C37,57.1797017 42.8202983,63 50,63 C57.1797017,63 63,57.1797017 63,50 C63,42.8202983 57.1797017,37 50,37 Z" id="Combined-Shape" fill="#4A4A4A"></path>
    </g>
</svg>