<?xml version="1.0" encoding="UTF-8"?>
<svg width="55px" height="45px" viewBox="0 0 55 45" version="1.1" xmlns="http://www.w3.org/2000/svg" xmlns:xlink="http://www.w3.org/1999/xlink">
    <title>web / EOF</title>
    <defs>
        <linearGradient x1="50%" y1="0%" x2="50%" y2="100%" id="linearGradient-1">
            <stop stop-color="#FFC700" offset="0%"></stop>
            <stop stop-color="#FF9500" offset="100%"></stop>
        </linearGradient>
        <linearGradient x1="50%" y1="0%" x2="50%" y2="100%" id="linearGradient-2">
            <stop stop-color="#FFC700" offset="0%"></stop>
            <stop stop-color="#FF9500" offset="100%"></stop>
        </linearGradient>
    </defs>
    <g id="web-/-EOF" stroke="none" stroke-width="1" fill="none" fill-rule="evenodd">
        <path d="M9.87208307,6.39705385 C16.8372254,4.8882937 22.5740586,5.64796254 27.0825827,8.67606038 L27.0825827,29.1871192 C21.3457495,26.3776915 15.6089163,25.6180227 9.87208307,26.9081126 C9.87208307,21.9168603 9.87208307,10.3066569 9.87208307,6.39705385 Z" id="Rectangle-19" fill="url(#linearGradient-1)"></path>
        <path d="M27.9091937,8.62932294 C32.8143851,5.71434337 38.5512183,4.95467453 45.1196933,6.35031641 C45.1196933,10.1409018 45.1196933,21.7699786 45.1196933,26.8613752 C38.6110443,25.5843399 32.8742111,26.3440087 27.9091937,29.1403817 L27.9091937,8.62932294 Z" id="Rectangle-19-Copy" fill="url(#linearGradient-2)"></path>
        <path d="M12.9770508,39.1474609 L12.9770508,38.7236328 L10.4648438,38.7236328 L10.4648438,36.8300781 L12.8505859,36.8300781 L12.8505859,36.4130859 L10.4648438,36.4130859 L10.4648438,34.6391602 L12.9770508,34.6391602 L12.9770508,34.215332 L10,34.215332 L10,39.1474609 L12.9770508,39.1474609 Z M14.1786719,39.1474609 L14.1786719,36.9838867 C14.1786719,36.296875 14.5956641,35.8286133 15.2519141,35.8286133 C15.8774023,35.8286133 16.2328711,36.2011719 16.2328711,36.8505859 L16.2328711,39.1474609 L16.684043,39.1474609 L16.684043,36.7788086 C16.684043,35.9448242 16.1884375,35.425293 15.3783789,35.425293 C14.7836523,35.425293 14.3700781,35.6953125 14.165,36.1533203 L14.1513281,36.1533203 L14.1513281,35.4663086 L13.7275,35.4663086 L13.7275,39.1474609 L14.1786719,39.1474609 Z M18.876875,39.1884766 C19.4750195,39.1884766 19.9432812,38.8637695 20.1551953,38.3647461 L20.1654492,38.3647461 L20.1654492,39.1474609 L20.5961133,39.1474609 L20.5961133,34 L20.1415234,34 L20.1415234,36.2216797 L20.1312695,36.2216797 C19.9330273,35.746582 19.4613477,35.425293 18.8666211,35.425293 C17.9506055,35.425293 17.3011914,36.1806641 17.3011914,37.3051758 C17.3011914,38.4296875 17.9540234,39.1884766 18.876875,39.1884766 Z M18.9486523,38.7817383 C18.2445508,38.7817383 17.7626172,38.1938477 17.7626172,37.3051758 C17.7626172,36.4199219 18.2445508,35.8286133 18.9486523,35.8286133 C19.6561719,35.8286133 20.1449414,36.4335938 20.1449414,37.3051758 C20.1449414,38.1835938 19.6561719,38.7817383 18.9486523,38.7817383 Z M24.4964258,39.1884766 C25.5081445,39.1884766 26.1712305,38.4536133 26.1712305,37.3051758 C26.1712305,36.1567383 25.5081445,35.425293 24.4964258,35.425293 C23.484707,35.425293 22.8250391,36.1567383 22.8250391,37.3051758 C22.8250391,38.4536133 23.484707,39.1884766 24.4964258,39.1884766 Z M24.4964258,38.7817383 C23.7513086,38.7817383 23.2864648,38.2246094 23.2864648,37.3051758 C23.2864648,36.3891602 23.7513086,35.8286133 24.4964258,35.8286133 C25.2449609,35.8286133 25.7098047,36.3857422 25.7098047,37.3051758 C25.7098047,38.2246094 25.2449609,38.7817383 24.4964258,38.7817383 Z M27.4480469,39.1474609 L27.4480469,35.8457031 L28.196582,35.8457031 L28.196582,35.4663086 L27.4480469,35.4663086 L27.4480469,35.0527344 C27.4514648,34.65625 27.6121094,34.4990234 27.9402344,34.4990234 C28.0325195,34.4990234 28.1316406,34.5092773 28.2068359,34.5263672 L28.2068359,34.1469727 C28.1145508,34.1264648 28.0154297,34.1162109 27.9026367,34.1162109 C27.2908203,34.1162109 26.993457,34.3999023 26.993457,35.0458984 L26.993457,35.4663086 L26.4807617,35.4663086 L26.4807617,35.8457031 L26.993457,35.8457031 L26.993457,39.1474609 L27.4480469,39.1474609 Z M32.0695508,39.1474609 C33.5495313,39.1474609 34.4074414,38.2416992 34.4074414,36.6796875 C34.4074414,35.1210938 33.5461133,34.215332 32.0695508,34.215332 L30.4460156,34.215332 L30.4460156,39.1474609 L32.0695508,39.1474609 Z M32.042207,38.7236328 L30.9142773,38.7236328 L30.9142773,34.6391602 L32.042207,34.6391602 C33.2555859,34.6391602 33.9323438,35.3706055 33.9323438,36.6831055 C33.9323438,37.9921875 33.2555859,38.7236328 32.042207,38.7236328 Z M35.3732227,34.7382812 C35.5407031,34.7382812 35.6774219,34.5981445 35.6774219,34.434082 C35.6774219,34.2631836 35.5407031,34.1264648 35.3732227,34.1264648 C35.2057422,34.1264648 35.0656055,34.2631836 35.0656055,34.434082 C35.0656055,34.5981445 35.2057422,34.7382812 35.3732227,34.7382812 Z M35.5988086,39.1474609 L35.5988086,35.4663086 L35.1476367,35.4663086 L35.1476367,39.1474609 L35.5988086,39.1474609 Z M37.5421289,39.1884766 C38.1060937,39.1884766 38.6051172,38.8911133 38.8033594,38.4433594 L38.8136133,38.4433594 L38.8136133,39.1474609 L39.2442773,39.1474609 L39.2442773,36.6386719 C39.2442773,35.8969727 38.7076562,35.425293 37.863418,35.425293 C37.090957,35.425293 36.5099023,35.8833008 36.4723047,36.5292969 L36.9063867,36.5292969 C36.988418,36.0917969 37.3473047,35.8286133 37.86,35.8286133 C38.4547266,35.8286133 38.7931055,36.1396484 38.7931055,36.6762695 L38.7931055,36.9907227 L37.6617578,37.065918 C36.7799219,37.1274414 36.3082422,37.4931641 36.3082422,38.1220703 C36.3082422,38.7578125 36.8072656,39.1884766 37.5421289,39.1884766 Z M37.6309961,38.7919922 C37.1183008,38.7919922 36.769668,38.5219727 36.769668,38.1254883 C36.769668,37.7119141 37.097793,37.4726562 37.7164453,37.4316406 L38.7931055,37.3564453 L38.7931055,37.7631836 C38.7931055,38.3442383 38.2906641,38.7919922 37.6309961,38.7919922 Z M40.497168,39.1474609 L40.497168,36.8642578 C40.497168,36.2695312 40.8321289,35.859375 41.3550781,35.859375 C41.5123047,35.859375 41.6421875,35.8833008 41.7037109,35.9106445 L41.7037109,35.4628906 C41.6456055,35.4458008 41.5362305,35.425293 41.4166016,35.425293 C40.9585937,35.425293 40.6099609,35.6816406 40.4834961,36.1191406 L40.4698242,36.1191406 L40.4698242,35.4663086 L40.0459961,35.4663086 L40.0459961,39.1474609 L40.497168,39.1474609 Z M42.4883398,40.449707 C43.0830664,40.449707 43.3394141,40.2104492 43.6607031,39.3491211 L45.1065039,35.4663086 L44.6279883,35.4663086 L43.4966406,38.6894531 L43.4863867,38.6894531 L42.358457,35.4663086 L41.8731055,35.4663086 L43.2573828,39.1713867 L43.1685156,39.4208984 C42.9976172,39.8925781 42.8198828,40.0600586 42.4815039,40.0600586 C42.4097266,40.0600586 42.3174414,40.0498047 42.2627539,40.0361328 L42.2627539,40.4257812 C42.3174414,40.4360352 42.4165625,40.449707 42.4883398,40.449707 Z" id="EndofDiary" fill="#FF9500" fill-rule="nonzero"></path>
    </g>
</svg>