<?xml version="1.0" encoding="UTF-8"?>
<svg width="55px" height="45px" viewBox="0 0 55 45" version="1.1" xmlns="http://www.w3.org/2000/svg" xmlns:xlink="http://www.w3.org/1999/xlink">
    <!-- Generator: Sketch 59.1 (86144) - https://sketch.com -->
    <title>web / logo_content</title>
    <desc>Created with Sketch.</desc>
    <defs>
        <linearGradient x1="50%" y1="0%" x2="50%" y2="100%" id="linearGradient-1">
            <stop stop-color="#FFC700" offset="0%"></stop>
            <stop stop-color="#FFA82D" offset="100%"></stop>
        </linearGradient>
    </defs>
    <g id="web-/-logo_content" stroke="none" stroke-width="1" fill="none" fill-rule="evenodd">
        <path d="M26.0825827,13.6760604 L26.0825827,34.1871192 C20.3457495,31.3776915 14.6089163,30.6180227 8.87208307,31.9081126 L8.87208307,11.3970539 L8.87208307,11.3970539 C15.8372254,9.8882937 21.5740586,10.6479625 26.0825827,13.6760604 Z M13,24.5 C12.7238576,24.5 12.5,24.7238576 12.5,25 C12.5,25.2761424 12.7238576,25.5 13,25.5 C16.9272661,25.5 20.1850993,26.1515666 22.7763932,27.4472136 C23.0233825,27.5707082 23.323719,27.470596 23.4472136,27.2236068 C23.5707082,26.9766175 23.470596,26.676281 23.2236068,26.5527864 C20.4815674,25.1817667 17.0727339,24.5 13,24.5 Z M13,20.5 C12.7238576,20.5 12.5,20.7238576 12.5,21 C12.5,21.2761424 12.7238576,21.5 13,21.5 C16.9272661,21.5 20.1850993,22.1515666 22.7763932,23.4472136 C23.0233825,23.5707082 23.323719,23.470596 23.4472136,23.2236068 C23.5707082,22.9766175 23.470596,22.676281 23.2236068,22.5527864 C20.4815674,21.1817667 17.0727339,20.5 13,20.5 Z M13,16.5 C12.7238576,16.5 12.5,16.7238576 12.5,17 C12.5,17.2761424 12.7238576,17.5 13,17.5 C16.9272661,17.5 20.1850993,18.1515666 22.7763932,19.4472136 C23.0233825,19.5707082 23.323719,19.470596 23.4472136,19.2236068 C23.5707082,18.9766175 23.470596,18.676281 23.2236068,18.5527864 C20.4815674,17.1817667 17.0727339,16.5 13,16.5 Z" id="Combined-Shape" fill="url(#linearGradient-1)"></path>
        <path d="M45.0825827,13.6760604 L45.0825827,34.1871192 C39.3457495,31.3776915 33.6089163,30.6180227 27.8720831,31.9081126 L27.8720831,11.3970539 L27.8720831,11.3970539 C34.8372254,9.8882937 40.5740586,10.6479625 45.0825827,13.6760604 Z M32,24.5 C31.7238576,24.5 31.5,24.7238576 31.5,25 C31.5,25.2761424 31.7238576,25.5 32,25.5 C35.9272661,25.5 39.1850993,26.1515666 41.7763932,27.4472136 C42.0233825,27.5707082 42.323719,27.470596 42.4472136,27.2236068 C42.5707082,26.9766175 42.470596,26.676281 42.2236068,26.5527864 C39.4815674,25.1817667 36.0727339,24.5 32,24.5 Z M32,20.5 C31.7238576,20.5 31.5,20.7238576 31.5,21 C31.5,21.2761424 31.7238576,21.5 32,21.5 C35.9272661,21.5 39.1850993,22.1515666 41.7763932,23.4472136 C42.0233825,23.5707082 42.323719,23.470596 42.4472136,23.2236068 C42.5707082,22.9766175 42.470596,22.676281 42.2236068,22.5527864 C39.4815674,21.1817667 36.0727339,20.5 32,20.5 Z M32,16.5 C31.7238576,16.5 31.5,16.7238576 31.5,17 C31.5,17.2761424 31.7238576,17.5 32,17.5 C35.9272661,17.5 39.1850993,18.1515666 41.7763932,19.4472136 C42.0233825,19.5707082 42.323719,19.470596 42.4472136,19.2236068 C42.5707082,18.9766175 42.470596,18.676281 42.2236068,18.5527864 C39.4815674,17.1817667 36.0727339,16.5 32,16.5 Z" id="Combined-Shape" fill="url(#linearGradient-1)" transform="translate(36.477333, 22.415776) scale(-1, 1) translate(-36.477333, -22.415776) "></path>
    </g>
</svg>