<?xml version="1.0" encoding="UTF-8"?>
<svg width="55px" height="45px" viewBox="0 0 55 45" version="1.1" xmlns="http://www.w3.org/2000/svg" xmlns:xlink="http://www.w3.org/1999/xlink">
    <title>logo / EOF</title>
    <g id="logo-/-EOF" stroke="none" stroke-width="1" fill="none" fill-rule="evenodd">
        <g id="END" transform="translate(14.703138, 16.763477)" fill="#4A4A4A" fill-rule="nonzero">
            <polygon id="E" points="6.11503906 9.23652344 0 9.23652344 0 0.00639648437 6.11503906 0.00639648437 6.11503906 1.65668945 1.93173828 1.65668945 1.93173828 3.81230469 5.87836914 3.81230469 5.87836914 5.34106445 1.93173828 5.34106445 1.93173828 7.58623047 6.11503906 7.58623047"></polygon>
            <polygon id="N" points="8.42748127 9.23652344 8.42748127 0.00639648437 10.0393953 0.00639648437 14.286661 5.75683594 14.4017977 5.75683594 14.4017977 0.00639648437 16.2503817 0.00639648437 16.2503817 9.23652344 14.6512606 9.23652344 10.391202 3.46049805 10.2760653 3.46049805 10.2760653 9.23652344"></polygon>
            <path d="M22.4007145,0 C23.0872705,0 23.6992008,0.101277669 24.2365055,0.303833008 C24.7738102,0.506388346 25.2268945,0.802758789 25.5957584,1.19294434 C25.9646224,1.58312988 26.2460677,2.06073405 26.4400944,2.62575684 C26.6341211,3.19077962 26.7311344,3.8336263 26.7311344,4.55429687 C26.7311344,5.30481771 26.6351872,5.97111816 26.4432926,6.55319824 C26.2513981,7.13527832 25.9710189,7.62460937 25.6021549,8.02119141 C25.233291,8.41777344 24.7802067,8.71947428 24.242902,8.92629395 C23.7055973,9.13311361 23.0915348,9.23652344 22.4007145,9.23652344 L18.7675114,9.23652344 L18.7675114,0 L22.4007145,0 Z M20.6992497,7.58623047 L22.0936833,7.58623047 C22.9508122,7.58623047 23.60965,7.33143717 24.0701969,6.82185059 C24.5307438,6.312264 24.7610172,5.56707357 24.7610172,4.5862793 C24.7610172,4.1214681 24.7002506,3.7067627 24.5787174,3.34216309 C24.4571842,2.97756348 24.282347,2.66946615 24.0542057,2.41787109 C23.8260644,2.16627604 23.5467513,1.97544759 23.2162663,1.84538574 C22.8857812,1.71532389 22.5115869,1.65029297 22.0936833,1.65029297 L20.6992497,1.65029297 L20.6992497,7.58623047 Z" id="D"></path>
        </g>
        <rect id="Rectangle" fill="#4A4A4A" x="0" y="21" width="9" height="1"></rect>
        <rect id="Rectangle-Copy" fill="#4A4A4A" x="46" y="21" width="9" height="1"></rect>
    </g>
</svg>
