<?xml version="1.0" encoding="UTF-8"?>
<svg width="55px" height="45px" viewBox="0 0 55 45" version="1.1" xmlns="http://www.w3.org/2000/svg" xmlns:xlink="http://www.w3.org/1999/xlink">
    <title>logo / logo_server_error</title>
    <g id="logo-/-logo_server_error" stroke="none" stroke-width="1" fill="none" fill-rule="evenodd">
        <path d="M18.9994396,10.9238284 L19,23 L20,23 L20.0001208,11.1131187 C22.2290927,11.595333 24.25658,12.4496469 26.0825827,13.6760604 L26.0825827,34.1871192 C20.3457495,31.3776915 14.6089163,30.6180227 8.87208307,31.9081126 L8.872,26.9994326 L18,27 L18,26 L8.872,25.9994326 L8.872,17.4994326 L15,17.5 L15,17 L8.872,16.9994326 L8.87208307,11.3970539 C12.5996756,10.5895983 15.9754611,10.4318564 18.9994396,10.9238284 Z M45.1196933,11.3503164 L45.1196933,31.8613752 C38.6110443,30.5843399 32.8742111,31.3440087 27.9091937,34.1403817 L27.9091937,13.6293229 C28.9048929,13.0376145 29.9348596,12.5347146 30.9990936,12.1206231 L31,24 L31.5,24 L31.4989754,11.933557 C35.5520236,10.4765227 40.0922629,10.2821092 45.1196933,11.3503164 Z" id="Combined-Shape" fill="#FFCC00"></path>
    </g>
</svg>