<?xml version="1.0" encoding="UTF-8"?>
<svg width="100px" height="100px" viewBox="0 0 100 100" version="1.1" xmlns="http://www.w3.org/2000/svg" xmlns:xlink="http://www.w3.org/1999/xlink">
    <title>logo-avatar</title>
    <g id="logo-avatar" stroke="none" stroke-width="1" fill="none" fill-rule="evenodd">
        <circle id="Oval" fill="#FFCC00" cx="50" cy="50" r="50"></circle>
        <path d="M49.9999557,54.3490603 C62.0399754,54.3490603 72.1397613,63.0483226 74.8861865,74.7924088 C75.4863512,77.3569454 73.6365899,80.0001639 71.1123153,80.0001639 L71.1123153,80.0001639 L28.8875962,80.0001639 C26.3633215,80.0001639 24.5135603,77.397106 25.113725,74.8325693 C27.8601501,63.0884832 37.959936,54.3490603 49.9999557,54.3490603 Z M49.9999557,19.9997541 C58.7025392,19.9997541 65.7577302,26.9893254 65.7577302,35.6123647 C65.7577302,44.2345844 58.7025392,51.2241557 49.9999557,51.2241557 C41.2973722,51.2241557 34.2421812,44.2345844 34.2421812,35.6123647 C34.2421812,26.9893254 41.2973722,19.9997541 49.9999557,19.9997541 Z" id="Combined-Shape" fill="#4A4A4A"></path>
    </g>
</svg>