<?xml version="1.0" encoding="UTF-8"?>
<svg width="55px" height="45px" viewBox="0 0 55 45" version="1.1" xmlns="http://www.w3.org/2000/svg" xmlns:xlink="http://www.w3.org/1999/xlink">
    <title>logo / logo_title_saved</title>
    <g id="logo-/-logo_title_saved" stroke="none" stroke-width="1" fill="none" fill-rule="evenodd">
        <path d="M37,11 C37,14.3137085 39.6862915,17 43,17 C43.7463712,17 44.4609124,16.8637193 45.1200974,16.6146841 L45.1196933,31.8613752 L45.1196933,31.8613752 C38.6110443,30.5843399 32.8742111,31.3440087 27.9091937,34.1403817 L27.9091937,13.6293229 C30.6763688,11.9848899 33.7082096,11.0263733 37.0047161,10.7537733 C37.0016488,10.8361923 37,10.9179036 37,11 Z" id="Combined-Shape" fill="#FFCC00"></path>
        <circle id="Oval" fill="#4CD964" cx="43" cy="11" r="4"></circle>
        <path d="M26.0825827,13.6760604 L26.0825827,34.1871192 C20.3457495,31.3776915 14.6089163,30.6180227 8.87208307,31.9081126 L8.87208307,11.3970539 L8.87208307,11.3970539 C15.8372254,9.8882937 21.5740586,10.6479625 26.0825827,13.6760604 Z M13,24.5 C12.7238576,24.5 12.5,24.7238576 12.5,25 C12.5,25.2761424 12.7238576,25.5 13,25.5 C16.9272661,25.5 20.1850993,26.1515666 22.7763932,27.4472136 C23.0233825,27.5707082 23.323719,27.470596 23.4472136,27.2236068 C23.5707082,26.9766175 23.470596,26.676281 23.2236068,26.5527864 C20.4815674,25.1817667 17.0727339,24.5 13,24.5 Z M13,20.5 C12.7238576,20.5 12.5,20.7238576 12.5,21 C12.5,21.2761424 12.7238576,21.5 13,21.5 C16.9272661,21.5 20.1850993,22.1515666 22.7763932,23.4472136 C23.0233825,23.5707082 23.323719,23.470596 23.4472136,23.2236068 C23.5707082,22.9766175 23.470596,22.676281 23.2236068,22.5527864 C20.4815674,21.1817667 17.0727339,20.5 13,20.5 Z M13,16.5 C12.7238576,16.5 12.5,16.7238576 12.5,17 C12.5,17.2761424 12.7238576,17.5 13,17.5 C16.9272661,17.5 20.1850993,18.1515666 22.7763932,19.4472136 C23.0233825,19.5707082 23.323719,19.470596 23.4472136,19.2236068 C23.5707082,18.9766175 23.470596,18.676281 23.2236068,18.5527864 C20.4815674,17.1817667 17.0727339,16.5 13,16.5 Z" id="Combined-Shape" fill="#FFCC00"></path>
    </g>
</svg>