<?xml version="1.0" encoding="UTF-8"?>
<svg width="30px" height="30px" viewBox="0 0 30 30" version="1.1" xmlns="http://www.w3.org/2000/svg" xmlns:xlink="http://www.w3.org/1999/xlink">
    <title>weather / fog_active</title>
    <g id="weather-/-fog_active" stroke="none" stroke-width="1" fill="none" fill-rule="evenodd">
        <path d="M24.9099449,19 C26.4287279,19 27.6599449,20.2312169 27.6599449,21.75 C27.6599449,23.2687831 26.4287279,24.5 24.9099449,24.5 C24.6338025,24.5 24.4099449,24.2761424 24.4099449,24 C24.4099449,23.7238576 24.6338025,23.5 24.9099449,23.5 C25.8764432,23.5 26.6599449,22.7164983 26.6599449,21.75 C26.6599449,20.7835017 25.8764432,20 24.9099449,20 L5.94531516,20 C5.66917279,20 5.44531516,19.7761424 5.44531516,19.5 C5.44531516,19.2545401 5.62219032,19.0503916 5.85543953,19.0080557 L5.94531516,19 L24.9099449,19 Z M23.7846792,16 C24.0608216,16 24.2846792,16.2238576 24.2846792,16.5 C24.2846792,16.7454599 24.107804,16.9496084 23.8745548,16.9919443 L23.7846792,17 L2,17 C1.72385763,17 1.5,16.7761424 1.5,16.5 C1.5,16.2545401 1.67687516,16.0503916 1.91012437,16.0080557 L2,16 L23.7846792,16 Z M23.9099449,5.5 C26.257155,5.5 28.1599449,7.40278981 28.1599449,9.75 C28.1599449,12.0972102 26.257155,14 23.9099449,14 L9.47152548,14 C9.1953831,14 8.97152548,13.7761424 8.97152548,13.5 C8.97152548,13.2545401 9.14840064,13.0503916 9.38164985,13.0080557 L9.47152548,13 L23.9099449,13 C25.7048703,13 27.1599449,11.5449254 27.1599449,9.75 C27.1599449,7.95507456 25.7048703,6.5 23.9099449,6.5 C23.6338025,6.5 23.4099449,6.27614237 23.4099449,6 C23.4099449,5.72385763 23.6338025,5.5 23.9099449,5.5 Z" id="Combined-Shape" fill="#FF9500" fill-rule="nonzero"></path>
    </g>
</svg>