<?xml version="1.0" encoding="UTF-8"?>
<svg width="30px" height="30px" viewBox="0 0 30 30" version="1.1" xmlns="http://www.w3.org/2000/svg" xmlns:xlink="http://www.w3.org/1999/xlink">
    <title>weather / sprinkle</title>
    <g id="weather-/-sprinkle" stroke="none" stroke-width="1" fill="none" fill-rule="evenodd">
        <path d="M7.5,21.5 C4.46243388,21.5 2,19.0375661 2,16 C2,12.9624339 4.46243388,10.5 7.5,10.5 L7.5,10.5 L10.2229972,10.5000846 C11.1324243,6.49206472 14.7167951,3.5 19,3.5 C23.9705627,3.5 28,7.52943725 28,12.5 C28,17.4705627 23.9705627,21.5 19,21.5 L19,21.5 Z" id="Combined-Shape-Copy" stroke="#C7C7CC" stroke-linejoin="round"></path>
        <path d="M11.25,26.5 C11.6642136,26.5 12,26.8357864 12,27.25 C12,27.6642136 11.6642136,28 11.25,28 C10.8357864,28 10.5,27.6642136 10.5,27.25 C10.5,26.8357864 10.8357864,26.5 11.25,26.5 Z M14.75,26.5 C15.1642136,26.5 15.5,26.8357864 15.5,27.25 C15.5,27.6642136 15.1642136,28 14.75,28 C14.3357864,28 14,27.6642136 14,27.25 C14,26.8357864 14.3357864,26.5 14.75,26.5 Z M18.25,26.5 C18.6642136,26.5 19,26.8357864 19,27.25 C19,27.6642136 18.6642136,28 18.25,28 C17.8357864,28 17.5,27.6642136 17.5,27.25 C17.5,26.8357864 17.8357864,26.5 18.25,26.5 Z M9.75,24 C10.1642136,24 10.5,24.3357864 10.5,24.75 C10.5,25.1642136 10.1642136,25.5 9.75,25.5 C9.33578644,25.5 9,25.1642136 9,24.75 C9,24.3357864 9.33578644,24 9.75,24 Z M13.25,24 C13.6642136,24 14,24.3357864 14,24.75 C14,25.1642136 13.6642136,25.5 13.25,25.5 C12.8357864,25.5 12.5,25.1642136 12.5,24.75 C12.5,24.3357864 12.8357864,24 13.25,24 Z M16.75,24 C17.1642136,24 17.5,24.3357864 17.5,24.75 C17.5,25.1642136 17.1642136,25.5 16.75,25.5 C16.3357864,25.5 16,25.1642136 16,24.75 C16,24.3357864 16.3357864,24 16.75,24 Z M20.25,24 C20.6642136,24 21,24.3357864 21,24.75 C21,25.1642136 20.6642136,25.5 20.25,25.5 C19.8357864,25.5 19.5,25.1642136 19.5,24.75 C19.5,24.3357864 19.8357864,24 20.25,24 Z" id="Combined-Shape" fill="#C7C7CC"></path>
    </g>
</svg>