<?xml version="1.0" encoding="UTF-8"?>
<svg width="55px" height="45px" viewBox="0 0 55 45" version="1.1" xmlns="http://www.w3.org/2000/svg" xmlns:xlink="http://www.w3.org/1999/xlink">
    <title>logo / EOF-dark</title>
    <g id="logo-/-EOF-dark" stroke="none" stroke-width="1" fill="none" fill-rule="evenodd">
        <path d="M20.8181775,16.769873 L20.8181775,18.420166 L16.6348767,18.420166 L16.6348767,20.5757812 L20.5815076,20.5757812 L20.5815076,22.104541 L16.6348767,22.104541 L16.6348767,24.349707 L20.8181775,24.349707 L20.8181775,26 L14.7031384,26 L14.7031384,16.769873 L20.8181775,16.769873 Z M24.7425338,16.769873 L28.9897994,22.5203125 L29.1049361,22.5203125 L29.1049361,16.769873 L30.9535201,16.769873 L30.9535201,26 L29.354399,26 L25.0943404,20.2239746 L24.9792037,20.2239746 L24.9792037,26 L23.1306197,26 L23.1306197,16.769873 L24.7425338,16.769873 Z M37.1038529,16.7634766 C37.7904089,16.7634766 38.4023393,16.8647542 38.939644,17.0673096 C39.4769486,17.2698649 39.930033,17.5662354 40.2988969,17.9564209 C40.6677608,18.3466064 40.9492061,18.8242106 41.1432328,19.3892334 C41.3372595,19.9542562 41.4342729,20.5971029 41.4342729,21.3177734 C41.4342729,22.0682943 41.3383256,22.7345947 41.1464311,23.3166748 C40.9545365,23.8987549 40.6741573,24.3880859 40.3052934,24.784668 C39.9364294,25.18125 39.4833451,25.4829508 38.9460404,25.6897705 C38.4087358,25.8965902 37.7946733,26 37.1038529,26 L33.4706498,26 L33.4706498,16.7634766 L37.1038529,16.7634766 Z M36.7968217,18.4137695 L35.4023881,18.4137695 L35.4023881,24.349707 L36.7968217,24.349707 C37.6539506,24.349707 38.3127885,24.0949137 38.7733354,23.5853271 C39.2338822,23.0757406 39.4641557,22.3305501 39.4641557,21.3497559 C39.4641557,20.8849447 39.4033891,20.4702393 39.2818559,20.1056396 C39.1603227,19.74104 38.9854854,19.4329427 38.7573442,19.1813477 C38.5292029,18.9297526 38.2498897,18.7389242 37.9194047,18.6088623 C37.5889197,18.4788005 37.2147253,18.4137695 36.7968217,18.4137695 Z" id="Combined-Shape" fill="#979797" fill-rule="nonzero"></path>
        <rect id="Rectangle" fill="#979797" x="0" y="21" width="9" height="1"></rect>
        <rect id="Rectangle-Copy" fill="#979797" x="46" y="21" width="9" height="1"></rect>
    </g>
</svg>