<svg xmlns="http://www.w3.org/2000/svg" viewBox="0 0 128 128"><defs><style>.cls-1{fill:none;}.cls-2{fill:#9e1f31;}</style></defs><title>中国银行</title><g id="图层_2" data-name="图层 2"><g id="图层_1-2" data-name="图层 1"><g id="中国银行"><rect class="cls-1" width="128" height="128"/><path class="cls-2" d="M114.77,61.77A52,52,0,0,0,103,31.4C85.71,11.16,63.59,13.05,63.59,13.05,40,12.29,25.44,30.27,25.44,30.27c-9.94,11.92-11.06,22.9-11.06,22.9C10,71.61,19.16,87.5,19.16,87.5,26,100,33.22,105.77,44.93,111.24s29.53,4.75,40.59-.84,17.81-11.73,24-23.36,5.25-25.27,5.25-25.27m-56,41.91A37.91,37.91,0,0,1,30,84.67S21.22,72,24.87,56.19,37.06,34.05,38.75,32.45s12.61-8.17,20.06-8.05V43.23H50.94s-10.69.66-11.07,12.58V73.22s.29,10.69,11.35,11.92h7.59v18.54M52.43,74.07a1.72,1.72,0,0,1-2.15-1.7V55.72s.28-1.8,1.69-1.8H75.12a1.79,1.79,0,0,1,2.15,1.8V71.9s.48,2.55-1.4,2.17H52.43m45.09,12.2c-7.5,11.54-21.75,16.85-28.4,17.41V85.14h8.81s9.38-1.89,9.94-11.73V53.63S86.36,43.71,76,43.23H69.12V24.4A38.83,38.83,0,0,1,90.3,34.15c9.47,8.79,11.9,17.59,12.94,22.32s1.78,18.26-5.72,29.8"/></g></g></g></svg>