<svg xmlns="http://www.w3.org/2000/svg" viewBox="0 0 128 128"><defs><style>.cls-1{fill:none;}.cls-2{fill:#003a90;}</style></defs><title>建设银行</title><g id="图层_2" data-name="图层 2"><g id="图层_1-2" data-name="图层 1"><g id="建设银行"><rect class="cls-1" width="128" height="128"/><path class="cls-2" d="M60.35,16.89S69,10.25,83.92,15.08A37.31,37.31,0,0,1,94.71,22l17.94,18.73-9.57,9.51L75.71,22.63S71.15,17,60.35,16.89ZM99.88,53.58,88.63,64.45s-1.82,2.57-3.34.16L64.61,44.53s-1.83-2.42-3.19-.31L40.58,65.36s-1.36,2.11.31,3L61.26,88.62s1.68,2.71,3.2.6L85.59,68.08s.61-1.81,4-1.36h21.59s.92,21.75-15.81,35.34c0,0-21.74,21.59-51.54,8.3,0,0-28.74-10-28.43-47,0,0,.76-24.77,23.41-37.9,0,0,16.57-12.24,29.8-3.17L99.88,53.58Z"/></g></g></g></svg>