<svg xmlns="http://www.w3.org/2000/svg" viewBox="0 0 128 128"><defs><style>.cls-1{fill:none;}.cls-2{fill:#c7162e;}</style></defs><title>招商银行</title><g id="图层_2" data-name="图层 2"><g id="图层_1-2" data-name="图层 1"><g id="招商银行"><rect class="cls-1" width="128" height="128"/><path class="cls-2" d="M45.21,49.38,30.66,85H88.51L74,49.22,59.59,84.5,45.22,49.38Zm56.65,27.07h11.55q-.33,1.3-.72,2.58h-9.8Zm-1.94-4.84h14.46c-.13.86-.28,1.72-.46,2.57H101Zm-2-4.85h16.9c-.05.86-.12,1.72-.2,2.57H99l-1-2.57Zm-2-4.85H114.9c0,.69,0,1.39,0,2.09v.49H97.05l-1-2.58Zm-1.94-4.84h20.4c.11.85.21,1.71.28,2.57H95.11l-1-2.58Zm-1.94-4.85h21.43c.21.85.39,1.71.55,2.58h-21l-1-2.58ZM13.06,64A50.94,50.94,0,0,1,113,49.94H91.23L78.54,18.3,64.3,53.7,49.77,18.61,22.86,85l11,15.47H94.63l10.51-15.78L103.8,81.3h8.13A50.94,50.94,0,0,1,13.06,64Z"/></g></g></g></svg>