<svg xmlns="http://www.w3.org/2000/svg" viewBox="0 0 128 128"><defs><style>.cls-1{fill:none;}.cls-2{fill:#1d2088;}.cls-3{fill:#5aa572;}</style></defs><title>民生银行</title><g id="图层_2" data-name="图层 2"><g id="图层_1-2" data-name="图层 1"><g id="民生银行"><rect class="cls-1" width="128" height="128"/><path class="cls-2" d="M110.49,69.76c-8.86-11.6-34-14.34-34-14.34l10-6.13L64.24,37.05,42,48.17l17.89,10c29-.49,37.38,15,37.38,15,7.26,22.72-34.48,24.33-34.48,24.33C38.62,100.05,27.5,79.1,27.5,79.1L13,79.59c17.24,34.32,79.12,19.33,79.12,19.33C124.51,89.1,110.49,69.76,110.49,69.76ZM64.24,55.42l-10-5,9.51-6.6,10,5.47Z"/><path class="cls-3" d="M66,26.09C49.74,25,18,26.57,14.13,45.91,10.74,61.38,34.27,70.24,50.87,71.85c-3.39,2.26-6.77,3.87-10,6.13,7.73,4.35,15,8.86,22.23,12.73l20.15-11.6L63.11,68.63c-3.86-.48-7.73.48-10,.48C42,69.11,25.73,57,30.24,45.91c8.38-23.69,63.49-20.46,69.13,3.38H115c-7.25-18.2-33.36-22.07-49-23.2ZM63.76,73l10,5.48L63.11,83.94l-9.5-5.48Z"/></g></g></g></svg>