<svg xmlns="http://www.w3.org/2000/svg" viewBox="0 0 128 128"><defs><style>.cls-1{fill:none;}.cls-2{fill:#14377e;}</style></defs><title>浦发银行</title><g id="图层_2" data-name="图层 2"><g id="图层_1-2" data-name="图层 1"><g id="浦发银行"><rect class="cls-1" width="128" height="128"/><path class="cls-2" d="M35.31,54a23.39,23.39,0,0,1,19.44-5.94c-1.54-3.35-7.52-14-20.94-14-12.36,0-20.68,11.42-20.68,22.06V95.55a5.6,5.6,0,0,0,1.8,4l11,8.82s2.18,1.93,2.18-1V71.51c0-.08,0-.39,0-.92a22.59,22.59,0,0,1,7.22-16.54m79.53-21.6a5.68,5.68,0,0,0-1.81-4l-11-8.8s-2.2-1.93-2.2,1c0,10,0,35.26,0,35.26a5.8,5.8,0,0,1,0,.91,22.51,22.51,0,0,1-7.23,16.53,23.33,23.33,0,0,1-19.42,5.94c1.56,3.36,7.51,14,20.94,14,12.38,0,20.68-11.4,20.68-22,0,0,0-20.44,0-38.82M79.75,53.27l.33-.32c6.58-5.6,14.48-5.1,17.13-4.74a20.71,20.71,0,0,0-36-5.8A22.76,22.76,0,0,0,56.6,54.68c-1.14,12.81-7.69,18.94-8.43,19.6a20.06,20.06,0,0,1-17.45,4.9c1.28,3.43,6.43,14.39,20.43,14a20.54,20.54,0,0,0,14.62-6.76c4.6-4.81,5.58-12.29,5.77-14.48,1-11,6-16.71,8.21-18.69"/></g></g></g></svg>