<svg xmlns="http://www.w3.org/2000/svg" viewBox="0 0 128 128"><defs><style>.cls-1{fill:none;}.cls-2{fill:#c42b25;}</style></defs><title>银行</title><g id="图层_2" data-name="图层 2"><g id="银行"><g id="银行-2" data-name="银行"><rect class="cls-1" width="128" height="128"/><path class="cls-2" d="M58.46,94a.9.9,0,0,1-.91-.9V82H41.83a.9.9,0,0,1-.9-.91V75a.9.9,0,0,1,.9-.9H57.55V67.45H41.83a.9.9,0,0,1-.9-.9v-6a.9.9,0,0,1,.9-.91H56.62L41.11,39.45a.91.91,0,0,1-.09-1,.92.92,0,0,1,.81-.5H52.92a.89.89,0,0,1,.73.38L64,53,74.35,38.38a.89.89,0,0,1,.73-.38H86.17a.92.92,0,0,1,.81.5.91.91,0,0,1-.09,1L71.38,59.62H86.17a.9.9,0,0,1,.9.91v6a.9.9,0,0,1-.9.9H70.45v6.68H86.17a.9.9,0,0,1,.9.9v6a.9.9,0,0,1-.9.91H70.45V93.1a.9.9,0,0,1-.91.9Z"/><path class="cls-2" d="M64,13A50.91,50.91,0,0,0,13,64v.16A51,51,0,1,0,64,13Zm0,95A43.93,43.93,0,0,1,20,64.14V64a44,44,0,1,1,44,44Z"/></g></g></g></svg>